<svg width="565" height="558" viewBox="0 0 565 558" fill="none" xmlns="http://www.w3.org/2000/svg">
<path d="M154.297 330.469C150.657 329.605 146.894 329.235 143.501 327.878C139.862 326.398 136.716 323.93 134.125 320.722C128.141 313.32 127.401 304.683 128.388 295.923C128.943 290.803 129.992 285.189 135.667 282.351C137.888 281.241 137.518 277.786 135.358 274.887C134.742 274.085 134.125 273.036 134.063 272.049C133.94 266.436 133.508 260.698 134.248 255.146C134.68 251.754 136.531 248.361 138.505 245.523C140.294 242.994 143.501 241.513 145.537 239.107C146.401 238.12 146.524 235.221 145.722 234.357C143.44 231.766 142.946 228.743 141.774 225.782C140.17 221.772 139.985 217.824 140.602 214.123C141.404 209.003 141.959 203.698 145.599 199.194C147.943 196.295 150.041 193.272 153.002 190.928C154.729 189.571 156.58 188.337 159.047 186.548C155.654 183.895 152.57 181.613 149.732 179.083C148.375 177.85 147.079 176.122 146.586 174.395C145.599 171.187 144.365 167.733 144.612 164.463C144.982 160.145 146.771 155.95 147.943 151.693C148.005 151.385 148.252 151.138 148.252 150.83C148.622 144.908 153.31 142.625 157.382 139.726C158.677 138.8 159.726 137.628 160.96 136.579C161.33 136.271 161.823 136.024 162.255 136.024C168.054 135.407 173.791 134.42 179.59 134.235C191.187 133.927 202.785 134.05 214.444 133.989C216.788 133.989 219.194 133.803 221.539 134.05C226.227 134.482 229.682 131.953 232.643 129.053C236.961 124.92 240.724 120.232 244.734 115.79C247.695 112.582 250.409 109.066 253.679 106.29C255.776 104.501 258.244 102.589 261.452 102.65C262.377 102.65 263.302 101.972 264.228 101.787C265.153 101.602 266.202 101.417 267.127 101.54C268.978 101.787 270.828 102.589 272.679 102.65C276.997 102.835 280.637 104.748 284.4 106.598C286.312 107.586 288.471 108.141 290.446 109.004C300.378 113.631 310.803 110.3 320.92 110.67C328.755 110.917 333.628 114.68 338.131 119.862C339.612 121.589 340.661 121.527 342.265 120.294C343.683 119.245 345.164 118.381 346.768 117.641C351.271 115.543 355.589 112.582 360.34 111.657C366.57 110.485 373.233 109.374 379.525 112.644C381.931 113.878 384.83 114.186 387.421 115.112C391.369 116.53 394.886 118.505 397.908 121.589C403.707 127.511 404.016 134.852 403.831 142.44C403.831 142.995 403.646 143.612 403.337 144.106C401.363 147.56 401.857 150.089 404.818 152.31C409.383 155.765 412.467 160.145 414.811 165.512C418.081 173.038 419.068 180.626 418.513 188.584C418.266 192.347 421.659 193.395 423.139 195.863C424.435 198.022 425.545 200.305 426.964 202.402C429.432 206.165 428.568 210.36 429.062 214.431C429.123 215.172 429.802 215.85 429.987 216.591C430.234 217.578 430.48 218.565 430.357 219.552C429.987 222.081 429.37 224.61 428.815 227.139C428.198 230.162 427.396 233.123 426.841 236.146C426.471 238.182 426.224 239.847 428.383 241.76C429.987 243.179 430.542 246.325 430.604 248.669C430.851 258.108 430.912 267.608 430.604 277.046C430.48 281.364 429.802 285.744 428.506 289.816C427.211 293.949 424.805 297.65 423.016 301.66C422.029 303.881 421.412 306.287 420.548 308.508C420.178 309.433 419.561 310.235 419.006 311.037C416.847 314.183 414.071 317.144 414.75 321.339C415.181 323.93 416.292 326.398 417.094 328.865C418.266 332.443 419.376 336.083 420.795 339.599C422.337 343.424 424.126 347.125 425.854 350.827C426.039 351.197 426.347 351.505 426.471 351.875C427.334 355.145 428.074 358.414 429 361.622C430.049 365.509 431.221 369.333 432.331 373.22C432.639 374.269 432.886 375.379 432.948 376.489C433.01 381.116 433.441 385.804 432.825 390.369C432.269 394.564 430.542 398.574 429.37 402.646C427.581 408.815 423.201 413.256 418.636 417.389C414.996 420.721 411.233 423.867 407.223 426.766C403.214 429.666 398.957 432.318 394.577 434.662C391.986 436.02 388.84 436.143 386.126 437.253C379.833 439.844 373.294 439.536 366.755 439.104C361.697 438.734 356.638 437.87 351.703 436.76C348.063 435.958 344.485 434.724 341.154 433.059C336.836 430.961 333.258 427.63 330.235 423.867C327.151 419.98 324.128 415.971 321.105 412.084C320.18 410.85 318.946 409.74 318.267 408.383C316.478 404.62 313.394 406.347 310.803 406.655C309.137 406.841 307.04 407.643 306.053 408.938C304.634 410.665 303.03 410.11 301.426 410.48C297.54 411.467 293.715 412.639 289.829 413.75C289.335 413.873 288.903 414.182 288.41 414.305C283.598 415.169 278.786 415.847 274.036 416.834C268.361 418.006 262.624 419.178 257.072 420.906C255.036 421.523 253.494 423.743 251.766 425.286C248.065 428.494 244.487 431.948 240.539 434.848C238.873 436.081 236.529 436.39 234.432 437.007C232.087 437.685 229.743 438.734 227.399 438.796C218.577 439.104 210.003 442.497 201.119 441.14C195.506 440.276 189.954 438.857 184.402 437.685C181.009 436.945 177.554 436.205 174.223 435.218C172.002 434.539 169.843 433.552 167.807 432.442C164.661 430.714 161.453 428.987 158.615 426.828C155.901 424.792 153.372 422.448 151.028 419.919C147.573 416.156 144.365 412.208 141.219 408.198C140.17 406.841 139.368 405.237 138.751 403.633C137.826 401.165 137.579 398.389 136.284 396.168C132.891 390.246 135.544 383.337 132.768 377.291C132.151 375.934 132.521 374.022 132.768 372.48C133.199 369.58 133.693 366.681 134.557 363.843C135.358 361.252 136.407 358.785 137.641 356.379C139.122 353.541 141.034 350.95 142.453 348.112C144.735 343.424 148.375 339.784 151.768 335.959C152.878 334.602 155.531 333.554 154.297 330.469ZM413.269 304.745C414.318 302.586 415.366 300.55 416.292 298.452C417.279 296.17 418.204 293.887 419.068 291.543C420.178 288.582 421.906 285.683 422.152 282.66C422.769 274.579 422.831 266.436 422.954 258.354C423.016 255.208 422.831 251.939 422.399 248.854C422.214 247.682 420.857 246.695 420.055 245.646C419.376 246.201 418.451 246.572 418.019 247.312C416.045 250.705 414.133 254.159 412.405 257.737C410.801 261.069 409.814 264.708 407.84 267.793C405.064 272.173 403.831 276.738 404.016 281.858C404.077 283.4 403.954 284.942 403.892 286.485C403.831 287.163 403.769 288.027 403.337 288.459C400.931 291.235 398.525 294.072 395.873 296.602C392.973 299.378 389.457 299.995 385.324 298.637C385.694 297.589 385.756 296.293 386.434 295.861C388.902 294.011 391.616 292.468 394.207 290.803C398.032 288.335 401.24 284.881 401.61 280.562C402.165 274.825 402.227 269.212 405.681 264.276C406.668 262.858 407.409 261.254 408.087 259.65C409.012 257.244 409.629 254.776 410.555 252.37C411.172 250.766 412.159 249.286 412.899 247.682C414.009 245.4 415.243 243.117 416.23 240.773C417.217 238.429 418.019 235.961 418.759 233.493C419.993 229.299 421.72 225.165 422.214 220.909C422.646 217.022 422.769 213.074 420.919 209.064C419.87 206.72 419.561 203.944 417.649 201.97C416.477 200.798 415.243 198.947 413.392 200.12C412.035 200.983 411.048 202.649 410.246 204.129C408.889 206.844 407.717 209.681 406.607 212.519C405.558 215.295 404.694 218.195 403.831 221.032C403.029 223.685 402.473 226.461 401.363 228.99C400.376 231.149 398.71 233 396.983 235.468C394.084 229.607 397.477 225.35 398.402 220.971C399.389 216.714 401.98 212.766 403.769 208.694C405.435 204.808 407.162 200.922 408.642 196.912C409.938 193.395 411.727 189.817 411.789 186.239C411.789 180.934 410.123 175.691 408.457 170.509C406.668 164.957 403.214 160.885 398.957 157.369C397.97 156.567 396.551 156.012 395.441 157.986C393.467 161.625 391.308 165.203 388.84 168.535C385.2 173.408 381.067 177.973 377.366 182.847C372.924 188.645 362.745 189.201 357.687 185.746C357.317 185.499 357.008 185.129 356.7 184.759C357.07 184.389 357.44 183.772 357.872 183.648C360.586 182.908 363.424 182.476 366.077 181.551C368.544 180.687 371.135 179.639 373.171 178.035C376.502 175.32 379.587 172.298 382.424 169.09C384.954 166.19 387.174 162.983 389.272 159.775C390.752 157.554 391.986 155.148 393.097 152.68C394.145 150.398 395.379 148.054 395.564 145.648C395.996 141.391 395.749 137.011 395.749 132.693C395.749 132.014 395.749 130.966 395.379 130.596C392.48 128.066 390.691 124.242 386.311 123.378C383.905 122.946 381.746 121.466 379.34 120.787C375.453 119.677 371.505 118.875 367.557 118.011C367.249 117.949 366.879 118.381 366.447 118.505C363.424 119.553 360.34 120.355 357.378 121.589C353.8 123.07 349.976 124.365 347.015 126.709C341.709 130.966 336.589 135.654 332.086 140.774C327.397 146.08 322.524 151.015 316.602 154.778C310.618 158.541 307.102 164.34 305.498 170.57C303.215 179.454 304.634 188.645 307.287 197.529C307.348 197.714 307.533 197.837 307.595 198.022C308.027 200.366 308.706 202.71 308.644 205.055C308.644 207.09 304.943 210.175 303.4 210.113C301.179 209.99 299.082 207.275 298.835 204.376C298.157 196.85 299.391 189.262 296.861 181.859C295.689 178.405 294.455 177.048 290.816 177.294C287.978 177.48 282.919 183.278 282.241 186.548C281.747 189.015 280.514 191.36 279.773 193.766C278.539 197.529 276.565 201.292 276.504 205.116C276.38 211.841 277.367 218.626 278.231 225.35C278.725 229.114 279.527 232.938 280.884 236.516C282.488 240.773 284.277 244.844 284.708 249.409C284.832 251.013 285.634 252.617 285.695 254.221C286.004 260.143 286.497 266.065 286.312 272.049C286.189 275.504 282.611 276.676 279.712 275.01C278.663 274.394 277.306 273.036 275.702 275.442C273.666 278.465 272.802 281.796 272.494 284.942C271.137 299.316 272.371 313.628 274.345 327.878C274.406 328.187 274.53 328.495 274.591 328.804C275.085 331.209 275.825 333.615 276.01 336.083C276.195 338.921 274.345 340.586 271.692 340.648C268.546 340.771 267.929 338.797 267.929 336.268C267.929 333.492 268.237 330.654 267.744 328.002C267.435 326.521 266.078 324.67 264.659 324.053C263.487 323.498 260.835 323.93 260.218 324.794C258.922 326.768 257.997 329.297 257.812 331.641C257.318 339.599 257.935 347.495 259.477 355.33C260.65 361.314 261.266 367.359 262.068 373.405C262.068 373.59 262.192 373.775 262.254 374.022C263.302 379.944 264.598 385.804 265.276 391.788C265.523 393.762 264.104 395.983 263.426 397.957C259.848 398.266 259.539 397.834 259.292 394.009C258.737 385.003 258.059 375.996 257.442 366.989C257.442 366.681 257.442 366.372 257.318 366.064C256.085 362.054 254.357 358.168 253.74 354.034C252.63 346.755 251.951 339.352 251.52 331.95C251.334 328.248 250.779 325.472 247.263 323.251C245.351 322.018 244.734 322.141 243.377 323.56C242.328 324.67 240.909 325.842 239.428 326.213C235.974 327.015 234.247 325.226 232.951 320.167C232.087 316.589 228.263 313.381 224.623 313.505C220.243 313.69 215.74 314.492 213.21 309.001C211.853 310.729 210.805 311.777 210.188 313.011C209.324 314.8 208.954 316.836 208.09 318.686C204.821 326.151 197.973 328.742 190.879 329.914C185.82 330.778 180.453 329.976 175.21 329.852C174.408 329.852 173.483 329.359 172.742 328.927C168.486 326.459 164.167 328.372 162.378 332.69C161.206 335.466 160.589 338.736 157.69 340.648C156.58 341.388 155.593 342.499 154.791 343.609C151.706 348.051 148.807 352.616 145.722 357.057C142.206 362.054 140.109 367.483 140.109 373.59C140.109 377.106 140.17 380.561 140.232 384.077C140.232 385.126 140.232 386.175 140.54 387.1C141.589 390.123 142.638 393.084 143.872 395.983C145.352 399.5 146.771 403.016 148.745 406.285C150.349 408.938 152.57 411.221 154.667 413.565C156.95 416.032 159.171 418.685 161.885 420.536C164.784 422.571 168.239 423.99 171.508 425.409C175.827 427.321 180.083 429.604 184.648 430.714C190.324 432.133 196.246 432.565 202.106 433.305C211.175 434.416 219.996 431.886 228.88 430.838C231.409 430.529 234.061 429.234 236.159 427.753C239.552 425.286 242.328 421.954 245.844 419.61C250.101 416.773 252.198 412.269 255.591 408.815C257.75 406.594 258.737 402.892 263.179 403.324C263.611 405.052 264.104 406.655 262.439 408.444C261.76 409.185 262.068 410.85 261.945 411.837C264.166 411.344 265.831 410.974 267.497 410.665C272.494 409.802 277.491 409 282.488 408.013C284.708 407.581 286.868 406.841 289.088 406.162C291.556 405.422 294.024 404.681 296.429 403.879C299.699 402.707 302.968 401.535 306.176 400.24C308.829 399.191 311.42 398.019 314.011 396.909C317.897 395.181 321.845 393.392 325.67 391.603C330.235 389.506 334.862 387.532 339.242 385.126C343.375 382.843 347.138 380.067 351.086 377.538C354.171 375.564 357.44 373.837 360.401 371.739C365.028 368.408 369.408 364.645 374.158 361.437C380.759 356.996 386.002 351.197 391.308 345.521C395.626 340.895 399.204 335.589 402.782 330.284C404.262 328.063 405.064 325.349 405.743 322.696C406.298 320.352 406.236 317.823 406.483 315.355C406.668 313.628 407.162 311.962 407.1 310.297C406.853 303.758 406.236 297.219 406.236 290.741C406.236 288.705 407.84 286.608 408.766 284.572C409.074 284.696 409.383 284.757 409.691 284.881C410.431 291.543 408.396 298.576 413.269 304.745ZM409.506 331.95C407.84 334.911 406.853 337.008 405.558 338.859C403.769 341.512 401.918 344.164 399.759 346.447C397.23 349.099 394.33 351.32 391.554 353.726C385.632 358.908 379.833 364.213 373.788 369.272C370.333 372.109 366.57 374.577 362.869 377.106C359.414 379.45 355.836 381.671 352.258 383.892C349.729 385.496 347.138 386.977 344.609 388.519C342.696 389.691 340.969 391.171 338.933 392.097C336.836 393.084 334.553 393.577 332.394 394.441C329.31 395.675 326.225 396.97 323.326 398.512C322.524 398.944 321.845 400.61 322.03 401.474C322.277 402.522 323.511 403.386 324.313 404.373C327.521 408.321 330.667 412.269 333.875 416.217C336.219 419.055 338.255 422.386 341.154 424.545C346.028 428.185 352.197 429.974 358.057 430.591C364.658 431.27 371.32 432.935 378.168 431.455C382.486 430.529 386.496 429.357 390.506 427.507C395.564 425.224 400.376 422.941 404.571 419.055C408.704 415.23 413.763 412.331 417.341 407.766C421.412 402.522 425.113 397.155 424.805 390.061C424.743 388.581 425.484 387.1 425.669 385.558C425.792 384.447 425.854 383.337 425.669 382.227C424.682 376.674 423.633 371.122 422.461 365.632C421.844 362.856 420.857 360.08 419.87 357.366C418.081 352.431 416.168 347.495 414.194 342.622C412.714 339.352 411.233 335.959 409.506 331.95ZM256.763 272.049C258.737 265.387 260.65 259.033 262.562 252.679C262.994 252.741 263.426 252.741 263.857 252.802C263.857 257.244 263.857 261.624 263.857 266.374C270.15 263.289 270.89 257.861 271.754 252.864C272.864 246.572 271.013 241.266 266.202 236.393C261.575 231.704 256.146 228.25 250.224 227.448C244.364 226.708 239.675 223.13 234 222.451C232.211 222.204 230.483 221.032 228.756 220.169C225.302 218.38 221.909 216.529 218.454 214.802C215.123 213.136 211.668 211.655 208.275 209.99C204.389 208.139 200.626 206.103 196.739 204.314C193.223 202.649 189.522 201.292 186.005 199.626C184.34 198.824 182.859 197.59 181.255 196.542C178.973 195.061 176.752 193.395 174.346 192.1C171.755 190.743 162.934 192.593 160.898 194.629C158.43 197.097 155.654 199.256 153.557 201.97C151.459 204.685 149.3 207.769 148.683 210.977C147.881 215.11 148.498 219.552 148.56 223.87C148.56 224.734 148.807 225.721 149.239 226.461C151.706 230.224 155.161 233.123 159.171 234.912C165.34 237.627 171.447 240.711 178.294 241.513C178.788 241.575 179.281 241.76 179.775 241.883C185.08 243.672 190.447 245.276 195.691 247.374C199.084 248.731 202.538 250.396 205.499 252.494C210.434 256.01 215.308 259.403 221.6 259.896C222.526 259.958 223.389 260.267 224.253 260.575C225.548 261.13 226.782 261.809 228.695 262.734C228.695 259.156 228.695 256.627 228.695 254.098C228.756 247.25 234.123 241.513 241.032 241.513C243.87 241.513 246.646 242.624 249.422 243.425C251.581 244.042 253.679 245.029 255.838 245.831C255.776 246.201 255.714 246.51 255.653 246.88C254.481 246.88 253.247 247.065 252.075 246.818C250.656 246.572 249.299 245.523 248.003 245.646C245.474 245.831 242.883 246.448 240.477 247.25C233.938 249.286 230.422 257.12 233.198 263.228C233.383 263.598 234 263.721 234.308 264.091C236.467 266.436 238.873 267.978 242.143 268.471C244.61 268.841 247.263 269.643 249.36 271.001C252.013 272.605 254.542 272.419 256.763 272.049ZM260.279 296.108C260.711 296.17 261.081 296.293 261.513 296.355C261.081 298.946 260.65 301.537 260.341 304.128C260.218 305.115 260.279 306.472 260.835 307.027C261.328 307.459 263.241 307.397 263.611 306.842C266.88 302.4 270.15 297.835 269.903 291.975C269.841 289.878 269.039 287.657 268.052 285.806C266.695 283.277 265.276 280.131 262.994 278.959C258.737 276.738 253.864 275.751 249.237 274.332C246.153 273.406 243.006 272.851 239.984 271.803C235.11 270.075 230.36 268.101 225.548 266.251C223.513 265.449 221.415 264.708 219.379 264.03C217.097 263.228 214.629 262.796 212.47 261.686C208.645 259.711 205.067 257.306 201.304 255.208C199.762 254.344 197.973 253.851 196.308 253.172C193.408 252 190.632 250.643 187.671 249.718C184.402 248.669 181.07 247.99 177.801 247.065C175.703 246.448 173.606 245.77 171.57 245.029C168.609 243.919 165.771 242.5 162.749 241.636C157.258 240.033 152.693 243.549 148.93 246.14C142.7 250.458 139.307 257.244 140.54 265.325C140.972 268.225 141.281 271.864 143.131 273.592C146.339 276.553 150.596 278.65 154.667 280.377C157.875 281.735 161.576 282.043 165.031 282.845C165.648 282.968 166.141 283.277 166.758 283.524C169.781 284.634 172.742 285.806 175.827 286.731C179.466 287.78 183.229 288.335 186.746 289.631C191.002 291.173 195.197 292.9 199.145 295.121C202.538 297.034 205.931 299.378 208.522 302.277C211.668 305.793 215.555 306.904 219.873 307.521C220.675 307.644 221.539 307.089 222.526 306.78C219.688 303.449 218.763 294.504 221.292 291.358C224.006 287.965 225.548 283.585 230.73 281.981C235.542 280.501 242.328 280.377 247.016 284.387C244.24 284.387 241.896 284.264 239.552 284.449C237.084 284.634 234.74 284.449 232.458 286.608C227.152 291.605 224.561 297.404 225.117 304.56C225.178 305.547 226.104 306.78 227.029 307.397C231.039 310.173 235.48 311.716 240.477 311.716C241.834 311.716 243.13 312.641 244.487 312.764C247.386 313.134 251.149 314.492 253.062 313.196C255.468 311.592 256.64 307.891 257.935 304.868C258.799 302.03 259.416 299.008 260.279 296.108ZM244.61 222.266C245.412 221.464 246.461 220.539 247.325 219.49C250.594 215.665 249.669 211.039 249.792 206.597C249.854 205.301 249.977 204.006 250.101 202.155C251.581 203.574 253.185 204.376 253.185 205.24C253.309 209.126 254.974 213.259 251.951 216.899C251.458 217.454 251.89 218.811 251.89 219.798C252.26 219.86 252.568 219.984 252.938 220.045C254.481 217.763 257.195 215.542 257.38 213.136C257.812 206.844 259.477 200.12 255.529 194.259C253.555 191.298 251.643 187.72 248.805 186.116C244.857 183.895 240.045 182.785 235.48 182.106C230.422 181.366 225.178 181.983 220.12 181.304C217.405 180.934 214.691 179.454 212.223 177.973C210.373 176.863 209.139 174.827 207.412 173.531C201.551 169.028 200.379 162.242 203.772 153.914C204.142 152.989 204.204 152.002 204.451 150.645C200.934 150.645 197.726 150.583 195.629 146.635C202.785 145.833 210.373 148.917 216.603 142.872C215.185 142.625 213.951 142.193 212.779 142.255C197.911 143.427 182.983 140.343 168.177 144.044C164.784 144.908 161.823 145.895 159.047 147.93C156.024 150.151 153.989 152.68 154.482 156.69C154.544 157.06 154.297 157.492 154.112 157.862C151.768 162.797 150.781 167.794 154.667 172.421C156.826 175.012 159.356 177.356 162.07 179.392C165.586 181.983 169.411 184.08 173.112 186.363C176.012 188.152 178.849 190.188 181.811 191.791C185.018 193.519 188.411 194.876 191.681 196.48C195.567 198.331 199.33 200.49 203.34 202.094C206.795 203.451 210.003 204.685 212.532 207.707C213.889 209.311 215.678 211.779 218.331 210.237C218.516 206.35 218.022 202.587 219.071 199.318C220.12 196.048 222.896 193.272 226.474 192.223C230.237 191.175 236.961 194.444 238.071 197.96C236.776 197.59 235.727 197.405 234.802 196.973C232.087 195.678 226.35 196.603 225.178 199.009C224.006 201.292 223.389 203.883 222.649 206.35C222.155 208.016 221.847 209.743 221.415 211.655C224.685 213.691 228.078 216.344 231.902 218.071C235.85 219.86 240.169 220.847 244.61 222.266ZM240.909 141.083C243.438 142.995 245.536 144.106 247.078 145.771C250.162 149.041 249.854 153.236 249.607 157.307C249.484 158.911 249.545 160.453 247.571 161.317C245.906 162.057 244.672 163.723 243.006 164.34C239.984 165.388 236.714 165.82 233.568 164.031C234.74 163.414 236.036 163.291 237.146 162.859C238.318 162.427 239.305 161.44 240.415 161.255C242.821 160.885 243.932 159.343 245.412 157.616C247.263 155.333 246.153 153.791 245.597 151.57C244.425 146.882 240.662 145.771 237.269 144.661C232.334 143.119 227.769 146.08 223.142 147.313C220.366 148.054 217.775 150.028 214.938 150.336C210.928 150.706 208.769 152.865 207.042 155.827C211.175 161.996 217.714 163.846 224.993 166.19C216.295 169.213 210.496 164.216 204.204 160.762C203.155 164.833 206.055 166.19 207.72 168.288C211.977 173.531 217.344 177.603 223.698 179.207C228.324 180.379 233.691 180.194 238.38 179.083C242.698 178.096 246.523 177.356 250.656 179.145C251.211 179.392 252.075 179.145 252.753 179.022C254.234 178.713 255.653 178.282 257.133 177.973C258.614 177.665 260.341 177.85 261.637 177.171C266.448 174.518 271.507 172.174 275.64 168.658C280.143 164.833 285.449 164.525 290.569 163.229C293.283 162.551 295.566 161.625 297.663 159.836C300.254 157.616 302.722 155.271 306.361 154.593C308.706 154.161 310.865 152.742 313.579 151.57C312.098 150.46 310.926 149.411 309.693 148.609C307.04 147.005 304.079 145.71 301.55 143.859C296.059 139.726 290.631 135.592 285.079 131.583C281.316 128.868 277.059 128.437 273.296 126.339C272.556 125.907 271.198 126.524 270.15 126.833C269.286 127.079 268.546 127.449 267.744 127.82C265.091 129.053 262.377 130.164 259.848 131.583C257.318 133.002 255.098 134.976 252.568 136.271C249.052 137.813 245.289 139.17 240.909 141.083ZM197.295 319.427C199.515 314.985 202.045 310.852 203.71 306.41C205.314 302.215 201.243 298.391 197.11 297.095C194.21 296.232 191.311 295.306 188.411 294.381C184.957 293.209 181.626 291.852 178.109 290.865C174.593 289.878 170.892 289.507 167.375 288.459C163.797 287.472 160.466 285.621 156.888 284.819C151.336 283.647 146.401 285.313 141.404 288.15C138.751 289.692 136.469 291.728 136.407 293.826C136.222 300.056 134.557 306.41 137.888 312.518C140.17 316.774 143.501 319.797 147.758 321.339C151.459 322.696 155.654 323.005 159.664 323.437C165.34 323.992 170.953 323.868 176.629 325.287C185.697 327.57 194.765 325.966 203.155 321.586C204.821 320.722 205.931 317.453 205.129 315.725C200.441 320.784 199.515 321.154 197.295 319.427ZM232.828 139.17C232.889 139.417 233.013 139.726 233.074 139.972C234.185 139.911 235.357 140.157 236.282 139.787C238.812 138.8 241.094 137.196 243.685 136.394C249.052 134.729 253.123 131.027 257.627 128.005C261.02 125.784 264.598 123.686 268.916 123.81C273.173 123.933 277.306 123.933 281.686 125.229C285.695 126.401 288.842 128.745 292.111 130.657C297.108 133.557 301.241 137.875 305.868 141.515C310.433 145.154 312.777 145.463 315.06 142.255C317.651 138.554 321.043 136.024 324.868 133.742C325.979 133.063 327.089 132.261 328.323 131.891C332.579 130.596 333.998 127.943 331.654 124.673C330.235 122.699 328.385 120.602 326.287 119.738C320.55 117.332 314.319 117.517 308.212 117.888C306.917 117.949 305.744 118.751 304.449 118.813C300.624 118.936 296.738 119.245 293.036 118.69C290.199 118.258 287.546 116.53 284.832 115.42C282.796 114.556 280.699 113.754 278.663 113.014C275.455 111.78 272.309 110.176 268.978 109.498C262.315 108.141 258.182 112.582 254.172 116.839C248.62 122.699 243.191 128.745 237.701 134.605C236.159 136.148 234.432 137.628 232.828 139.17ZM328.323 136.024C327.459 136.271 326.657 136.333 326.164 136.765C323.326 139.356 320.55 142.008 317.774 144.661C317.527 144.908 317.465 145.71 317.712 146.018C317.897 146.326 318.576 146.45 319.008 146.388C319.501 146.326 319.933 146.018 320.365 145.648C323.388 143.057 326.41 140.466 329.372 137.813C329.618 137.628 329.803 136.888 329.68 136.765C329.248 136.456 328.693 136.271 328.323 136.024Z" fill="white"/>
<path d="M283.965 556.994C281.313 557.673 280.449 556.686 280.449 554.218C280.326 542.929 280.757 531.517 279.585 520.351C278.166 506.841 279.03 493.393 278.598 479.944C278.105 462.301 278.166 444.596 277.981 426.953C277.92 423.622 280.942 421.586 283.904 423.067C284.52 423.375 284.952 424.547 285.014 425.349C285.446 430.346 285.816 435.343 286.001 440.402C286.063 442.437 285.569 444.411 285.384 446.447C285.322 447.187 285.137 447.866 285.199 448.606C285.446 453.726 285.939 458.785 285.939 463.905C285.939 468.1 285.137 472.233 285.199 476.428C285.384 486.977 285.878 497.464 286.063 508.013C286.124 510.234 285.569 512.455 285.322 514.676C285.261 515.292 284.952 515.971 285.137 516.526C287.728 523.127 284.212 529.543 284.767 536.143C285.384 542.744 284.52 549.468 284.335 556.131C284.212 556.316 284.089 556.563 283.965 556.994Z" fill="white"/>
<path d="M0.256975 276.183C-0.544987 273.284 0.565421 272.482 3.09468 272.482C18.517 272.297 33.8777 272.05 49.3 271.803C54.4202 271.68 59.5404 271.31 64.6607 271.248C67.4367 271.186 70.2127 271.557 73.0504 271.742C73.7907 271.803 74.4693 271.865 75.2095 271.803C79.281 271.433 83.2908 270.816 87.3006 270.755C99.2067 270.569 111.113 270.57 123.019 270.508C124.808 270.508 128.139 273.531 127.399 275.073C126.782 276.43 124.869 277.911 123.451 277.972C116.171 278.281 108.892 278.219 101.613 278.219C82.3038 278.219 62.995 278.342 43.748 278.096C29.9912 277.911 16.2345 277.109 2.47779 276.553C1.8609 276.368 1.12063 276.245 0.256975 276.183Z" fill="white"/>
<path d="M436.77 286.732C436.893 284.573 436.955 282.784 437.078 280.563C441.705 280.563 446.146 280.563 450.526 280.563C454.845 280.563 459.163 280.687 463.481 280.502C465.023 280.44 466.566 279.576 468.169 279.145C468.848 278.96 469.835 278.774 470.205 279.083C473.845 281.921 478.101 280.317 481.988 280.563C488.218 280.995 494.511 280.687 500.803 280.502C502.469 280.44 504.073 279.947 505.8 279.638C507.157 279.947 508.699 280.502 510.242 280.502C526.404 280.625 542.505 280.625 558.668 280.687C559.716 280.687 560.889 280.44 561.69 280.81C562.678 281.304 563.418 282.352 564.281 283.154C563.479 283.71 562.739 284.635 561.876 284.82C560.148 285.129 558.359 284.82 556.632 285.005C523.073 288.645 489.452 285.992 455.832 286.794C449.724 286.856 443.555 286.732 436.77 286.732Z" fill="white"/>
<path d="M265.522 538.117C262.623 538.796 261.883 537.624 261.944 535.403C262.006 532.318 261.389 529.11 262.129 526.211C265.337 513.503 262.314 500.487 264.165 487.84C265.399 479.327 265.276 470.814 266.201 462.301C266.88 456.132 267.435 449.963 268.052 443.794C268.668 437.625 269.409 431.518 270.026 425.349C270.211 423.375 271.506 423.128 272.987 423.066C274.591 423.066 276.195 423.19 276.195 425.349C276.133 432.196 276.997 439.352 275.454 445.891C274.282 451.073 274.406 456.132 273.974 461.19C273.11 471.307 273.172 481.548 271.259 491.418C270.026 497.711 270.581 503.941 269.656 510.172C268.73 516.526 267.496 522.88 266.509 529.234C266.139 532.257 265.892 535.218 265.522 538.117Z" fill="white"/>
<path d="M303.338 544.531C302.475 540.336 301.364 536.758 301.056 533.057C300.007 522.015 299.205 510.972 298.28 499.868C297.725 493.144 297.108 486.42 296.614 479.696C295.874 469.825 296.059 459.77 294.208 450.085C292.604 441.942 293.468 433.799 292.234 425.779C291.987 424.299 291.802 422.633 292.111 421.214C292.543 419.117 294.147 418.438 296.676 419.117C297.354 423.003 298.341 427.013 298.712 431.085C299.143 436.266 298.341 441.695 299.328 446.754C301.056 455.328 299.822 464.15 301.426 472.54C302.845 479.881 301.981 487.222 303.215 494.439C305.436 507.579 305.004 520.781 305.436 533.982C305.436 534.599 305.497 535.216 305.744 535.771C307.533 540.213 307.348 541.138 303.338 544.531Z" fill="white"/>
<path d="M543.922 303.882C544.601 306.72 543.059 307.336 540.529 307.213C530.042 306.534 519.555 305.856 509.13 305.177C507.896 305.116 506.662 305.239 505.428 305.116C496.545 304.499 487.415 304.684 478.778 302.895C471.684 301.414 464.405 302.401 457.619 300.736C451.203 299.132 444.911 299.81 438.619 298.885C436.83 298.638 435.226 297.343 433.375 296.541C433.93 295.801 434.362 295.43 434.547 294.999C436.028 291.05 437.878 290.372 441.641 292.037C442.999 292.654 444.602 292.593 446.083 292.963C447.502 293.333 448.921 293.888 450.71 294.443C453.301 291.791 457.372 292.531 460.333 293.641C463.911 294.999 467.304 294.567 470.759 294.999C472.918 295.245 474.954 295.924 477.853 296.541C479.642 294.937 482.541 295.369 485.564 296.417C486.428 296.726 487.353 296.911 488.279 296.973C497.038 297.775 505.86 298.453 514.62 299.255C521.652 299.934 528.747 300.736 535.779 301.723C538.432 302.031 541.023 303.08 543.922 303.882Z" fill="white"/>
<path d="M19.441 249.843C24.3144 250.336 29.3113 248.671 34.0613 251.2C34.7399 251.57 35.6653 251.385 36.4672 251.385C41.5258 251.508 46.5226 251.447 51.5811 251.755C62.6852 252.495 73.7893 253.297 84.8934 254.223C90.2603 254.655 95.6273 255.271 100.933 256.073C108.335 257.122 115.738 258.418 123.079 259.59C127.027 260.207 125.362 263.106 125.547 265.882C121.228 265.635 117.034 267.054 113.024 264.71C112.222 264.216 111.05 264.216 110.063 264.216C106.238 264.031 102.29 264.587 98.7118 263.723C91.5558 261.996 84.1531 263.229 77.2439 261.749C71.4451 260.515 65.5229 261.132 60.0326 259.466C54.5422 257.862 49.1135 258.418 43.6849 257.616C35.9737 256.505 28.3242 255.086 20.7364 253.606C19.8728 253.421 19.2559 251.94 18.5156 251.077C18.8241 250.645 19.1325 250.213 19.441 249.843Z" fill="white"/>
<path d="M538.991 325.781C533.871 326.398 528.751 326.521 523.692 325.102C522.828 324.855 522.026 324.3 521.101 324.177C514.685 323.375 508.208 322.758 501.792 321.771C496.857 320.969 491.984 319.612 487.11 318.44C486.432 318.255 485.753 317.946 485.013 317.885C479.276 317.144 473.477 316.589 467.74 315.602C461.818 314.615 455.957 312.949 449.973 312.086C445.655 311.469 441.213 311.469 436.772 311.407C433.687 311.346 430.048 308.384 430.171 305.793C430.233 304.128 430.788 302.956 432.762 303.264C436.402 303.819 439.98 303.388 443.743 304.868C448.184 306.657 453.366 306.534 458.24 307.459C463.915 308.569 469.591 309.865 475.266 311.099C475.574 311.16 475.883 311.222 476.191 311.284C482.422 312.086 488.653 312.703 494.821 313.813C499.757 314.677 504.568 316.096 509.504 317.206C510.614 317.453 511.724 317.329 512.835 317.514C518.325 318.316 523.877 318.933 529.244 320.167C532.699 320.969 535.968 322.82 539.299 324.177C539.238 324.67 539.114 325.226 538.991 325.781Z" fill="white"/>
<path d="M142.33 188.584C139.554 192.162 139.616 192.162 135.668 189.941C130.548 187.042 125.366 184.266 120.307 181.181C114.817 177.85 109.326 174.395 103.959 170.817C99.2711 167.733 94.8294 164.278 90.0793 161.256C85.1442 158.109 79.9623 155.457 75.0271 152.372C70.2771 149.349 65.7121 145.957 60.962 142.872C58.186 141.021 55.0398 139.664 52.3255 137.814C48.9326 135.469 45.9715 132.57 42.5169 130.349C40.3577 128.93 41.4681 127.943 42.3318 126.154C76.5077 145.772 109.018 167.61 142.33 188.584Z" fill="white"/>
<path d="M124.005 254.777C119.933 253.728 116.541 252.864 113.148 252.001C112.963 251.939 112.778 251.877 112.531 251.877C107.164 251.137 101.673 250.582 96.3682 249.595C90.8161 248.546 85.2641 247.065 79.7737 245.77C79.5887 245.708 79.3419 245.708 79.1568 245.708C73.7899 244.968 68.3612 244.474 62.9942 243.426C57.6889 242.439 52.507 240.896 47.2017 239.663C46.8933 239.601 46.5849 239.539 46.2764 239.478C41.4029 238.676 36.5295 237.997 31.7177 237.01C29.682 236.578 27.7079 235.715 25.7338 234.851C25.4254 234.727 25.2403 233.309 25.4254 233.247C27.091 232.198 28.6949 230.101 30.9774 232.383C31.2859 232.692 31.9028 232.815 32.3346 232.877C39.4906 233.679 46.6465 234.357 53.7408 235.221C58.7993 235.838 64.0429 236.146 68.7313 237.812C71.9392 238.984 75.0236 238.799 78.1698 239.416C83.4751 240.465 88.657 241.76 93.9006 242.994C94.0857 243.056 94.2707 243.117 94.5175 243.117C100.44 243.919 106.3 244.598 112.161 245.461C116.417 246.078 120.674 246.695 124.807 247.744C125.917 248.052 127.336 250.212 127.151 251.26C127.028 252.617 125.239 253.604 124.005 254.777Z" fill="white"/>
<path d="M541.703 262.55C535.226 263.228 528.749 263.845 522.271 264.524C517.583 265.017 512.895 265.264 508.329 266.251C499.755 268.163 490.871 266.868 482.482 268.533C472.18 270.569 461.816 269.089 451.575 270.754C448.059 271.309 444.543 271.865 440.965 272.235C439.237 272.42 437.14 272.05 437.448 269.952C437.633 268.595 439.237 266.868 440.595 266.313C442.322 265.634 444.419 265.942 446.393 265.819C449.601 265.634 452.686 265.942 455.955 264.4C458.423 263.228 461.816 264.215 464.777 263.968C468.293 263.66 471.748 262.92 475.202 262.426C475.387 262.365 475.634 262.364 475.819 262.364C481.556 262.92 487.293 261.748 493.031 261.871C495.005 261.933 496.979 260.946 498.953 260.39C499.261 260.329 499.57 260.144 499.816 260.205C505.739 261.377 511.599 259.588 517.521 259.774C523.443 259.959 529.427 259.527 535.411 259.403C537.2 259.342 538.989 259.342 540.716 259.588C541.272 259.65 541.703 260.699 542.197 261.254C542.012 261.748 541.888 262.179 541.703 262.55Z" fill="white"/>
<path d="M283.965 98.4562C281.929 97.5926 280.449 96.9757 278.166 95.9886C279.215 64.342 276.315 32.2018 280.264 0.246757C280.88 0.185068 281.559 0.123379 282.176 0C282.793 2.28251 283.965 4.56501 284.027 6.84752C284.335 29.2408 284.397 51.634 284.582 74.0272C284.643 80.628 284.767 87.1671 284.767 93.7678C284.767 95.3101 284.273 96.8523 283.965 98.4562Z" fill="white"/>
<path d="M154.17 39.4805C155.281 40.6526 156.576 41.7013 157.502 42.9968C160.648 47.3767 163.856 51.7567 166.632 56.3834C169.84 61.812 172.369 67.6108 175.453 73.1012C178.538 78.6532 182.177 83.9585 185.139 89.5722C187.668 94.2606 189.518 99.2575 191.924 104.069C193.22 106.598 195.009 108.881 196.428 111.349C198.34 114.68 200.191 118.073 202.041 121.404C202.288 121.836 202.226 122.514 202.535 122.823C203.399 123.748 205.003 124.612 203.214 125.907C201.671 127.018 199.944 128.807 198.093 126.216C197.291 125.167 196.366 124.18 195.687 123.008C193.775 119.8 191.863 116.53 190.074 113.261C188.408 110.176 186.989 107.03 185.324 104.008C183.596 100.861 181.622 97.9003 179.833 94.8158C178.229 91.9164 176.749 88.9553 175.145 86.0559C172.492 81.2442 169.654 76.5558 167.125 71.6823C165.398 68.2894 164.102 64.7114 162.375 61.3185C160.771 58.049 158.859 54.9028 157.255 51.6333C156.7 50.4612 156.453 49.104 156.268 47.8702C156.021 45.8345 156.7 43.4286 153.554 42.8734C153.183 42.8117 153.06 41.2078 152.875 40.3441C153.369 39.9123 153.739 39.7272 154.17 39.4805Z" fill="white"/>
<path d="M254.481 475.934C254.172 477.044 253.617 478.401 253.37 479.82C252.63 483.953 252.136 488.087 251.273 492.22C250.039 498.389 248.559 504.558 247.14 510.727C246.523 513.441 245.968 516.217 245.042 518.808C244.61 519.98 243.377 520.905 242.019 522.448C241.588 521.029 241.156 520.227 241.156 519.425C241.464 515.107 240.169 510.603 242.76 506.532C242.945 506.285 242.945 505.915 242.945 505.606C243.747 499.252 244.302 492.837 245.351 486.544C246.276 480.931 247.695 475.379 248.929 469.827C248.99 469.642 248.99 469.395 249.052 469.21C249.854 463.349 250.533 457.489 251.581 451.628C252.815 444.657 254.296 437.686 255.9 430.777C256.208 429.543 257.442 428.31 258.552 427.508C260.279 426.336 261.883 427.261 261.698 429.358C261.513 431.641 260.896 433.923 260.403 436.144C260.279 436.638 260.033 437.131 259.971 437.625C259.169 443.485 258.552 449.407 257.503 455.268C256.578 460.635 255.098 465.94 254.111 471.307C253.864 472.788 254.296 474.268 254.481 475.934Z" fill="white"/>
<path d="M50.2261 378.772C49.4858 378.156 48.6838 377.415 47.5117 376.367C51.5215 374.516 55.0995 372.912 58.6158 371.308C61.8853 369.828 65.1549 368.285 68.3627 366.743C70.5835 365.694 72.7427 364.337 75.0252 363.412C79.1584 361.746 83.4149 360.512 87.4864 358.785C90.941 357.305 94.2723 355.392 97.6652 353.727C99.5775 352.801 101.613 352.061 103.587 351.136C106.548 349.778 109.448 348.175 112.532 346.941C115 345.954 117.591 345.46 120.12 344.658C121.909 344.041 123.821 343.486 125.364 342.437C129.62 339.476 134.555 338.798 139.552 337.379C139.614 338.057 139.922 338.736 139.676 339.044C137.702 342.006 135.851 345.46 132.335 346.386C127.461 347.681 123.081 349.593 118.948 352.308C118.393 352.678 117.529 352.554 116.912 352.863C114.321 354.035 111.73 355.33 109.201 356.564C108.769 356.749 108.276 356.934 107.844 357.12C102.785 359.094 97.7268 361.129 92.6683 363.042C90.3858 363.905 87.9182 364.522 85.6357 365.324C83.6617 366.003 81.6876 366.805 79.7753 367.607C75.8271 369.334 72.0024 371.308 67.9926 372.912C65.1549 374.022 62.1321 374.701 59.2327 375.688C56.2099 376.552 53.3722 377.662 50.2261 378.772Z" fill="white"/>
<path d="M122.155 287.287C122.217 289.94 121.353 290.742 119.194 291.359C113.087 293.148 106.918 292.716 100.749 293.024C100.009 293.086 99.3302 293.579 98.5899 293.826C97.973 294.073 97.0477 294.752 96.6776 294.505C92.0508 291.605 87.7326 295.554 83.1059 294.998C78.4792 294.443 73.6057 294.752 68.979 295.368C56.3944 297.096 43.6864 297.404 31.0401 297.281C30.1147 297.281 29.066 297.466 28.3257 297.096C27.7705 296.849 27.3387 295.183 27.4004 295.122C28.8193 294.32 30.2998 293.333 31.842 293.086C34.4947 292.716 37.209 293.086 39.8617 292.778C48.9917 291.729 58.1217 290.372 67.3134 289.385C72.6187 288.829 78.0474 289.385 83.291 288.521C93.9015 286.67 104.574 286.855 115.246 286.485C116.048 286.485 116.788 285.622 117.652 285.437C118.824 285.19 120.119 284.881 121.168 285.251C121.785 285.56 121.97 286.979 122.155 287.287Z" fill="white"/>
<path d="M135.727 200.614C133.013 199.442 130.607 198.517 128.263 197.345C124.87 195.617 121.6 193.705 118.331 191.793C115.246 190.004 112.162 188.091 109.077 186.302C106.178 184.637 103.217 183.218 100.379 181.552C94.8887 178.406 89.3984 175.075 83.908 171.929C82.0573 170.88 79.9599 170.386 78.1092 169.338C74.8397 167.549 71.6318 165.513 68.3623 163.662C66.3882 162.552 64.2908 161.75 62.1934 160.824C61.6382 160.578 61.0213 160.516 60.4661 160.146C56.703 157.74 52.94 155.211 49.1152 152.805C45.2288 150.399 41.2807 148.116 36.7773 144.724C38.0728 144.292 39.3683 143.86 41.0339 143.305C42.206 143.922 44.4268 144.97 46.586 146.204C48.4366 147.253 50.1639 148.61 52.0146 149.659C53.9887 150.769 56.1478 151.509 58.1836 152.558C63.9207 155.581 69.9045 158.11 75.0247 162.182C76.4436 163.292 78.4794 163.724 80.0833 164.711C84.5866 167.364 89.0282 170.078 93.5316 172.731C95.0121 173.594 96.7394 174.211 98.2816 175.013C103.895 177.974 109.509 180.874 115.061 183.896C121.107 187.228 127.091 190.62 133.136 193.952C135.357 195.247 136.282 196.913 135.727 200.614Z" fill="white"/>
<path d="M515.424 155.396C514.807 156.445 514.498 157.802 513.635 158.419C508.453 161.997 503.209 165.513 497.842 168.721C493.709 171.189 489.267 173.101 485.072 175.445C480.507 177.975 476.127 180.751 471.624 183.28C467.306 185.686 462.741 187.722 458.423 190.127C454.536 192.348 450.896 195.063 447.01 197.407C445.283 198.456 443.247 199.011 441.396 199.874C440.533 200.306 439.792 201.108 438.867 201.293C437.51 201.602 435.659 202.157 434.857 201.54C433.562 200.553 431.773 198.764 434.425 196.975C436.955 195.248 439.484 193.52 442.075 191.916C443.802 190.868 445.653 190.127 447.442 189.14C450.958 187.29 454.474 185.439 457.929 183.465C462.001 181.244 466.01 178.9 470.02 176.618C471.809 175.63 473.475 174.458 475.325 173.533C479.952 171.189 484.702 169.091 489.267 166.686C493.524 164.403 497.534 161.689 501.852 159.468C504.258 158.172 507.034 157.494 509.625 156.507C511.352 155.828 512.956 155.088 514.683 154.348C514.868 154.656 515.115 155.026 515.424 155.396Z" fill="white"/>
<path d="M127.953 359.155C127.83 362.425 126.411 364.214 123.511 365.386C120.612 366.496 118.021 368.347 115.307 369.951C113.641 370.938 112.16 372.233 110.495 373.097C104.943 376.058 99.2057 378.772 93.6536 381.795C90.3841 383.584 87.423 385.928 84.1535 387.594C79.28 390.061 74.1598 391.974 69.2246 394.38C66.1402 395.86 63.3025 397.834 60.3414 399.562C57.8738 401.042 55.4679 402.708 52.8769 404.003C52.075 404.373 50.2243 404.065 49.6691 403.386C48.9288 402.461 48.3736 401.042 50.4711 399.993C53.1237 398.636 55.2828 396.169 57.8121 394.565C60.5881 392.837 63.6109 391.542 66.4486 389.938C70.7052 387.47 74.8384 384.88 79.0949 382.412C81.1307 381.302 83.3515 380.561 85.4489 379.513C88.41 377.97 91.186 376.181 94.0854 374.577C97.355 372.788 100.625 371.061 103.894 369.272C105.313 368.47 106.793 367.73 108.212 366.866C112.222 364.399 116.232 361.808 120.303 359.402C121.846 358.476 123.635 357.86 125.362 357.181C127.521 356.441 128.323 357.243 127.953 359.155Z" fill="white"/>
<path d="M503.15 139.973C503.582 140.219 504.507 140.404 504.63 140.898C504.815 141.392 504.445 142.379 504.013 142.687C500.497 145.34 498.03 149.041 493.588 150.892C490.01 152.372 487.172 155.457 483.903 157.678C481.127 159.59 478.227 161.255 475.39 163.044C472.922 164.587 470.454 166.252 467.925 167.733C465.766 169.028 463.422 170.015 461.324 171.373C459.165 172.73 457.315 174.58 455.155 175.938C451.886 177.973 448.37 179.762 445.1 181.798C443.003 183.094 441.029 184.636 438.993 186.116C436.587 187.905 434.304 189.818 431.775 191.545C430.356 192.532 427.087 191.113 426.655 189.262C426.285 187.659 426.655 186.425 428.629 185.499C432.269 183.71 435.538 181.243 438.993 179.084C441.892 177.171 444.792 175.259 447.753 173.408C450.035 171.928 452.379 170.509 454.724 169.09C456.883 167.795 459.227 166.622 461.324 165.204C464.964 162.736 468.419 159.96 472.12 157.554C474.773 155.765 477.734 154.408 480.448 152.742C484.705 150.151 488.776 147.252 493.094 144.784C496.241 142.934 499.633 141.638 503.15 139.973Z" fill="white"/>
<path d="M305.925 415.539C309.256 416.958 308.886 419.734 309.195 422.387C309.935 428.741 310.058 435.28 311.786 441.387C313.019 445.829 312.711 450.27 313.451 454.588C314.438 460.326 315.796 466.001 317.029 471.738C317.091 472.047 317.214 472.355 317.214 472.663C318.016 481.67 318.695 490.615 319.62 499.56C319.929 502.336 321.039 505.05 321.409 507.888C321.718 510.417 321.471 513.008 321.471 515.538C320.977 515.661 320.484 515.784 319.929 515.908C319.065 514.18 317.831 512.576 317.461 510.787C316.042 504.372 314.932 497.894 313.698 491.479C313.636 491.17 313.513 490.862 313.513 490.553C312.711 484.199 312.094 477.845 311.045 471.553C309.997 465.076 308.516 458.598 307.467 452.121C306.974 448.975 307.714 445.52 306.727 442.682C304.876 437.5 305.864 431.948 303.458 426.828C302.286 424.299 302.841 420.783 303.087 417.76C303.149 416.896 304.938 416.218 305.925 415.539Z" fill="white"/>
<path d="M521.223 343.98C516.967 345.337 513.204 344.906 509.502 343.734C508.947 343.548 508.454 343.055 507.898 342.932C503.642 342.006 499.324 341.266 495.129 340.279C492.723 339.724 490.379 338.922 488.034 338.12C484.456 336.948 480.94 335.652 477.301 334.542C474.833 333.802 472.304 333.185 469.836 332.568C467.307 331.889 464.839 331.149 462.31 330.594C457.992 329.668 453.674 328.805 449.355 327.941C446.332 327.324 442.94 327.324 440.41 325.782C435.784 323.006 430.787 322.451 425.728 321.587C424.556 321.402 423.261 320.045 422.767 318.934C422.52 318.318 423.569 316.529 424.433 316.097C425.481 315.603 427.024 315.912 428.257 316.158C429.553 316.405 430.787 317.207 432.082 317.454C436.709 318.379 441.891 318.256 445.962 320.292C451.329 322.944 456.758 323.993 462.557 324.548C463.42 324.61 464.346 325.042 465.086 325.535C467.739 327.139 470.391 328.126 473.599 328.249C475.635 328.311 477.671 329.73 479.706 330.409C481.495 331.025 483.346 331.581 485.258 331.951C489.392 332.814 493.525 333.37 497.596 334.418C502.285 335.652 506.911 337.194 511.6 338.613C513.697 339.23 515.918 339.662 517.954 340.649C519.126 341.266 519.928 342.685 521.223 343.98Z" fill="white"/>
<path d="M189.95 125.538C184.583 126.71 181.437 124.798 179.463 120.109C178.167 117.086 176.255 114.372 174.528 111.534C172.739 108.697 170.826 105.921 168.975 103.083C164.966 96.8524 161.018 90.6217 157.131 84.3911C154.849 80.6898 152.751 76.9267 150.469 73.2253C147.939 69.1538 145.225 65.2674 142.819 61.1342C141.215 58.3582 139.858 55.4588 138.563 52.4977C138.254 51.7574 138.624 50.7704 138.686 49.9068C138.994 49.7217 139.303 49.5366 139.611 49.3516C141.832 51.8191 144.361 54.04 146.335 56.7543C150.407 62.368 154.293 68.1668 158.118 74.0273C160.586 77.852 162.745 81.8618 165.274 85.6866C169.654 92.4724 174.281 99.1349 178.661 105.921C180.573 108.882 181.992 112.09 183.843 115.051C185.57 117.827 187.606 120.418 189.395 123.132C189.703 123.687 189.703 124.551 189.95 125.538Z" fill="white"/>
<path d="M43.935 173.039C47.0812 174.088 50.1039 175.013 53.065 176.062C55.9644 177.111 58.8021 178.344 61.7015 179.516C63.4905 180.257 65.3412 180.997 67.1302 181.799C71.7569 183.835 76.3836 185.994 81.072 187.968C84.4649 189.387 87.9812 190.497 91.3124 192.101C94.8287 193.767 98.0983 196.049 101.615 197.653C105.378 199.38 109.387 200.553 113.212 202.218C116.914 203.884 120.491 205.858 124.193 207.585C126.044 208.449 128.079 209.066 129.93 209.991C131.411 210.793 132.706 211.965 134.248 213.075C133.014 214.371 132.151 215.296 131.349 216.098C128.696 214.864 126.167 213.692 123.638 212.52C119.381 210.546 115.186 208.572 110.868 206.721C108.4 205.673 105.748 204.932 103.28 203.884C99.7639 202.403 96.3093 200.738 92.8547 199.134C90.4488 198.023 87.9812 197.036 85.5753 195.864C83.0461 194.63 80.5168 193.335 77.9258 192.101C76.1985 191.299 74.4712 190.682 72.6822 190.004C68.7341 188.4 64.6626 187.043 60.7762 185.254C57.445 183.711 54.4222 181.552 51.2143 179.825C49.487 178.9 47.698 178.036 45.7857 177.604C43.2564 177.111 43.133 175.692 43.935 173.039Z" fill="white"/>
<path d="M431.155 339.168C430.291 336.7 424.677 335.528 427.083 330.1C429.612 331.025 432.203 331.95 434.794 332.937C435.905 333.369 436.953 333.863 438.064 334.233C441.086 335.343 444.109 336.454 447.07 337.564C449.353 338.428 451.574 339.847 453.98 340.155C457.619 340.71 460.272 342.993 463.48 344.165C466.811 345.399 470.451 345.83 473.905 346.694C474.707 346.879 475.447 347.311 476.188 347.558C480.321 349.038 483.652 352.184 488.217 352.863C490.993 353.295 493.708 354.652 496.422 355.639C499.383 356.749 502.282 357.798 505.182 359.032C507.834 360.142 510.425 361.438 513.078 362.61C514.867 363.412 516.594 364.152 518.445 364.831C520.789 365.694 523.195 366.311 525.416 367.237C526.28 367.607 527.02 368.532 527.452 369.396C527.698 369.828 527.328 371.246 527.143 371.246C526.033 371.308 524.861 371.37 523.874 371C521.159 369.951 518.63 368.532 515.916 367.483C510.055 365.324 504.195 363.35 498.273 361.376C495.435 360.451 492.474 359.772 489.574 358.847C488.032 358.353 486.552 357.49 485.071 356.811C482.418 355.577 479.827 354.158 477.113 353.11C474.831 352.184 472.301 351.876 469.957 350.951C466.749 349.717 463.603 348.236 460.395 347.003C458.113 346.139 455.707 345.584 453.424 344.72C450.402 343.548 447.441 342.129 444.479 340.895C443.677 340.587 442.69 340.648 441.765 340.402C440.099 339.908 438.434 339.106 436.768 338.86C435.103 338.674 433.375 339.045 431.155 339.168Z" fill="white"/>
<path d="M217.71 125.105C213.022 126.956 211.295 125.784 209.938 121.157C208.889 117.641 207.038 114.371 205.558 110.978C204.447 108.511 203.337 105.981 202.226 103.514C200.869 100.429 199.45 97.4066 198.217 94.2605C197.291 91.9163 196.674 89.4487 195.749 87.1045C194.762 84.6369 193.528 82.2927 192.418 79.8868C192.109 79.27 191.924 78.5297 191.678 77.9128C190.567 75.1368 189.333 72.3607 188.285 69.523C187.298 66.9321 186.434 64.2178 185.447 61.6268C184.398 58.9125 182.918 56.3215 182.177 53.4838C181.067 49.2272 178.476 45.3408 179.155 40.7141C179.216 40.1589 179.833 39.6654 180.203 39.1719C180.573 39.6654 181.067 40.0972 181.375 40.6524C184.028 45.7109 186.681 50.7695 189.148 55.9514C190.259 58.2339 190.814 60.7632 191.678 63.1073C192.541 65.3899 193.59 67.6724 194.515 69.9549C195.626 72.6692 196.736 75.4452 197.908 78.1595C198.587 79.7635 199.45 81.3674 200.191 82.9713C202.041 87.0428 203.954 91.1143 205.743 95.2475C206.791 97.7151 207.408 100.368 208.395 102.897C209.321 105.179 210.678 107.339 211.665 109.683C212.714 112.15 213.454 114.741 214.441 117.271C215.49 119.8 216.6 122.329 217.71 125.105Z" fill="white"/>
<path d="M137.207 177.603C135.356 176.616 133.444 175.814 131.778 174.642C126.72 171.064 121.784 167.301 116.726 163.723C110.31 159.158 103.771 154.84 97.4788 150.213C91.495 145.771 85.8195 141.083 79.959 136.456C75.5174 132.94 71.0758 129.547 66.8192 125.846C66.0789 125.229 66.3257 123.501 66.1406 122.268C66.9426 122.514 67.7445 122.699 68.4848 123.131C71.9394 125.29 75.394 127.388 78.7869 129.67C84.5241 133.495 90.5079 136.826 95.5048 141.7C97.4788 143.612 100.378 144.476 102.661 146.08C106.917 149.102 111.05 152.372 115.307 155.518C119.625 158.726 123.944 161.81 128.262 164.957C131.408 167.239 134.677 169.337 137.454 171.989C138.379 172.915 138.009 175.197 138.255 176.863C137.885 177.109 137.577 177.356 137.207 177.603Z" fill="white"/>
<path d="M296.056 102.774C291.923 103.083 290.38 101.726 290.442 97.5925C290.566 92.1638 289.949 86.5501 291.182 81.3065C292.848 74.2122 291.614 66.9329 293.28 60.0854C294.637 54.2866 294.267 48.5495 294.945 42.8124C295.562 37.2603 296.303 31.77 297.166 26.2179C297.475 24.4289 298.215 22.7633 298.894 21.036C299.017 20.6659 299.942 20.2341 300.004 20.3574C300.436 20.7893 301.053 21.4062 301.053 21.8997C301.114 25.4777 301.114 29.0556 301.053 32.6953C300.929 41.0851 301.608 49.6599 300.374 57.9263C298.894 67.9199 299.572 77.8519 298.647 87.7839C298.215 92.7191 296.981 97.5925 296.056 102.774Z" fill="white"/>
<path d="M523.816 430.284C519.744 432.628 517.524 429.914 515.118 428.619C510.553 426.213 506.234 423.437 501.854 420.722C499.202 419.057 496.796 417.144 494.143 415.417C490.627 413.135 486.987 410.914 483.471 408.631C479.338 405.979 475.39 403.141 471.133 400.735C468.912 399.501 466.26 399.069 463.792 398.267C463.175 398.082 462.003 397.836 462.003 397.527C461.51 392.592 456.636 392.469 453.86 390.186C451.331 388.089 448.246 386.732 445.532 384.881C443.805 383.709 441.954 382.413 440.72 380.809C438.808 378.342 438.993 378.157 441.831 375.812C446.087 379.02 449.974 383.03 454.724 385.251C458.857 387.163 462.497 389.631 466.26 391.975C471.257 395.06 475.945 398.638 480.942 401.784C484.766 404.19 488.838 406.164 492.663 408.57C497.536 411.716 502.225 415.17 507.098 418.378C510.676 420.722 514.501 422.758 518.017 425.226C520.053 426.583 521.78 428.434 523.816 430.284Z" fill="white"/>
<path d="M518.141 384.57C514.502 383.213 510.738 381.794 507.037 380.314C505.125 379.574 503.212 378.648 501.3 377.908C497.352 376.304 493.28 374.947 489.394 373.158C484.397 370.875 479.647 368.223 474.712 365.817C472.614 364.83 470.332 364.213 468.235 363.288C465.335 362.054 462.559 360.635 459.598 359.401C455.527 357.735 451.393 356.255 447.384 354.528C443.682 352.924 439.981 351.135 436.341 349.284C434.799 348.544 433.195 347.68 432.023 346.446C431.221 345.583 431.159 344.102 430.789 342.868C432.085 342.868 433.565 342.498 434.675 342.93C439.117 344.657 443.435 346.693 447.754 348.605C448.556 348.976 449.234 349.592 450.036 349.963C453.861 351.567 457.747 353.109 461.634 354.713C463.238 355.391 464.78 356.193 466.322 356.933C470.27 358.784 474.218 360.697 478.228 362.547C480.264 363.473 482.423 364.151 484.459 365.015C487.173 366.187 489.826 367.359 492.54 368.593C494.082 369.333 495.563 370.32 497.105 370.937C499.079 371.801 501.238 372.356 503.212 373.22C506.482 374.638 509.751 376.181 512.898 377.785C515.118 378.895 517.278 380.19 519.375 381.548C519.992 381.918 520.3 382.72 520.794 383.337C520.115 383.768 519.313 384.077 518.141 384.57Z" fill="white"/>
<path d="M57.0117 416.032C61.33 413.256 64.7229 411.035 68.1158 408.753C71.6938 406.409 75.2101 404.003 78.7881 401.659C81.5024 399.808 84.2167 397.957 86.9927 396.168C91.8045 392.96 96.5546 389.753 101.428 386.668C104.266 384.879 107.35 383.399 110.25 381.671C112.779 380.129 115.123 378.093 117.714 376.736C120.058 375.564 121.909 372.603 125.24 373.96C126.227 378.895 125.487 379.944 121.354 381.918C118.578 383.213 116.048 385.126 113.457 386.853C110.928 388.519 108.461 390.369 105.931 391.973C102.23 394.318 98.467 396.477 94.7656 398.759C91.8045 400.61 88.9051 402.584 85.944 404.435C81.8108 407.087 77.6777 409.802 73.4211 412.269C69.5963 414.49 65.7099 416.649 61.6384 418.438C60.8365 418.747 59.2325 417.204 57.0117 416.032Z" fill="white"/>
<path d="M514.683 179.207C515.424 181.736 515.3 182.908 512.833 183.834C509.193 185.253 505.923 187.473 502.345 189.201C500.125 190.249 497.719 190.866 495.436 191.792C493.215 192.655 491.056 193.642 488.897 194.629C484.826 196.418 480.754 198.146 476.683 199.996C474.277 201.107 471.994 202.341 469.65 203.451C468.046 204.191 466.442 204.931 464.838 205.487C461.816 206.535 458.793 207.399 455.77 208.448C453.611 209.25 451.39 210.052 449.293 211.039C446.023 212.643 442.815 214.493 439.546 216.097C439.052 216.344 437.448 215.727 437.387 215.295C437.14 213.753 436.708 211.717 437.448 210.669C438.374 209.435 440.409 209.003 441.952 208.324C444.172 207.399 446.455 206.597 448.614 205.61C450.835 204.623 452.871 203.204 455.091 202.341C459.41 200.675 463.851 199.379 468.108 197.652C472.118 196.048 475.881 194.012 479.829 192.162C481.433 191.422 482.975 190.743 484.641 190.126C487.232 189.201 489.946 188.399 492.537 187.412C495.375 186.301 498.151 184.944 501.05 183.834C503.579 182.908 506.232 182.23 508.761 181.366C510.673 180.811 512.648 180.009 514.683 179.207Z" fill="white"/>
<path d="M368.109 446.138C372.428 445.891 375.204 447.865 376.869 450.95C379.46 455.7 382.421 460.265 384.951 465.077C386.74 468.531 388.035 472.233 389.762 475.749C391.058 478.278 392.785 480.622 394.204 483.09C395.438 485.311 396.548 487.593 397.72 489.814C398.522 491.356 399.262 492.898 400.064 494.441C402.1 498.451 404.259 502.399 406.172 506.47C407.591 509.431 408.886 512.454 409.996 515.538C410.243 516.217 409.75 517.204 409.565 518.068C408.763 517.636 407.652 517.389 407.159 516.711C405.863 514.86 404.876 512.762 403.642 510.85C402.162 508.444 400.62 506.1 399.077 503.756C397.967 502.09 396.857 500.486 395.746 498.821C394.883 497.525 394.019 496.23 393.279 494.811C391.983 492.343 390.996 489.629 389.577 487.223C387.788 484.262 385.691 481.424 383.717 478.587C383.47 478.216 383.162 477.723 383.162 477.229C382.853 472.726 379.707 469.642 377.61 466.002C376.437 463.966 375.821 461.622 374.71 459.525C373.353 456.872 371.626 454.404 370.269 451.813C369.528 450.148 368.973 448.359 368.109 446.138Z" fill="white"/>
<path d="M265.584 43.5533C266.386 53.0534 267.188 62.4919 268.052 71.9921C268.113 72.6706 268.298 73.596 268.73 73.9044C270.334 74.8298 269.285 75.5083 269.1 76.6804C268.669 79.8266 268.669 83.2195 269.347 86.3657C269.841 88.7716 270.149 92.4112 268.422 93.645C267.558 94.2619 266.201 94.5704 265.214 94.3236C264.597 94.2002 263.98 92.8431 263.857 91.9794C262.993 81.8624 262.315 71.7453 261.513 61.5666C260.896 53.2385 260.526 44.787 259.353 36.5207C258.86 33.0661 259.909 29.8582 259.539 26.4653C259.168 23.0107 259.477 19.4944 259.539 16.0398C259.539 15.4846 260.094 14.8677 260.464 14.3125C261.019 14.6826 261.821 14.9294 262.006 15.4229C262.685 17.0885 263.425 18.8775 263.733 20.6665C264.474 24.4296 262.746 28.5627 265.646 31.9557C266.016 32.3875 265.831 33.3745 265.831 34.0531C265.831 37.1993 265.831 40.4071 265.831 43.5533C265.769 43.4916 265.708 43.5533 265.584 43.5533Z" fill="white"/>
<path d="M523.322 408.94C521.718 408.323 520.423 407.891 519.189 407.274C517.462 406.472 515.796 405.547 514.069 404.745C509.257 402.524 504.322 400.427 499.572 398.082C494.02 395.368 488.529 392.53 483.162 389.508C479.029 387.225 475.266 384.326 471.133 382.043C466.445 379.514 461.386 377.663 456.698 375.134C454.045 373.715 451.824 371.556 449.233 370.014C447.629 369.027 445.655 368.595 443.928 367.731C442.447 367.053 441.029 366.066 439.548 365.325C436.464 363.845 436.032 362.549 437.636 359.465C440.35 360.76 443.126 361.932 445.779 363.351C448.493 364.77 451.146 366.436 453.86 367.916C457.191 369.767 460.646 371.494 463.977 373.345C467.432 375.257 470.825 377.231 474.218 379.144C475.76 380.007 477.425 380.686 478.968 381.488C482.731 383.462 486.494 385.498 490.257 387.472C493.28 389.014 496.364 390.495 499.387 392.098C502.718 393.949 505.988 395.985 509.319 397.836C512.218 399.44 515.673 400.303 517.894 402.462C519.744 404.313 524.186 403.634 523.322 408.94Z" fill="white"/>
<path d="M316.785 419.488C319.746 421.709 322.645 424.053 323.694 427.878C325.236 433.553 326.593 439.291 328.012 445.028C328.629 447.557 329.246 450.086 329.925 452.554C331.035 456.687 332.269 460.882 333.441 465.015C333.503 465.2 333.503 465.447 333.564 465.632C334.428 470.135 335.168 474.7 336.217 479.204C337.883 486.36 339.733 493.392 341.461 500.548C341.707 501.535 341.831 502.646 341.522 503.571C341.337 504.249 340.412 504.928 339.672 505.113C339.301 505.175 338.376 504.249 338.191 503.633C336.587 498.451 335.353 493.145 333.564 487.963C331.775 482.782 330.418 477.538 329.555 472.048C328.938 468.285 327.272 464.645 326.1 460.944C326.038 460.758 325.915 460.573 325.853 460.388C325.051 456.379 324.496 452.369 323.447 448.421C322.584 445.151 321.227 442.067 320.116 438.92C319.869 438.18 319.623 437.378 319.499 436.576C318.636 431.703 317.834 426.829 316.97 421.956C316.847 421.277 316.415 420.66 316.168 420.044C316.353 419.858 316.538 419.673 316.785 419.488Z" fill="white"/>
<path d="M129.929 326.276C129.929 327.448 129.929 328.497 129.929 329.36C126.043 330.964 122.341 332.63 118.578 333.987C115.926 334.974 113.088 335.406 110.374 336.269C106.857 337.442 103.465 338.799 100.01 340.094C99.6398 340.218 99.208 340.341 98.7762 340.341C94.2728 340.588 90.3864 342.562 86.3149 344.289C83.4772 345.461 80.3927 345.893 77.4316 346.633C74.9024 347.312 72.3731 347.99 69.8438 348.792C66.2659 349.965 62.7496 351.383 59.1099 352.37C55.5936 353.296 51.9539 353.851 48.2526 354.53C47.574 352.494 48.1292 351.507 49.9182 350.766C54.1748 349.039 58.4313 347.435 62.9346 346.263C67.1295 345.214 71.0159 342.747 75.0874 340.896C75.5193 340.711 76.0745 340.588 76.568 340.588C81.2564 340.464 85.2662 338.367 89.5228 336.701C92.4838 335.529 95.8151 335.159 98.8995 334.234C102.292 333.247 105.624 332.013 108.955 330.903C110.929 330.224 112.903 329.484 114.939 328.99C119.257 327.88 123.637 326.831 127.955 325.844C128.572 325.659 129.251 326.091 129.929 326.276Z" fill="white"/>
<path d="M201.488 39.4809C204.881 38.6789 205.745 39.7276 206.3 41.9485C207.04 44.7862 208.459 47.3771 209.508 50.1531C210.372 52.374 211.174 54.5948 211.852 56.8156C212.839 59.8384 213.579 62.9845 214.566 66.0073C215.553 69.0301 216.849 71.9912 217.898 75.0139C218.823 77.6666 219.687 80.3192 220.55 83.0336C221.722 86.6115 222.894 90.1895 224.005 93.7675C224.93 96.852 225.732 99.9364 226.719 102.959C227.83 106.537 228.878 110.177 230.297 113.631C231.716 117.024 230.914 120.726 227.46 123.44C226.472 120.479 225.609 117.518 224.622 114.619C223.511 111.349 222.278 108.141 221.105 104.933C220.982 104.563 220.92 104.193 220.797 103.761C219.44 99.7514 218.083 95.7416 216.726 91.7318C216.047 89.5726 215.43 87.3518 214.813 85.131C213.95 81.9232 213.209 78.7153 212.161 75.5692C211.05 72.1145 209.693 68.7833 208.583 65.3904C207.781 62.8611 207.04 60.3319 206.423 57.7409C205.498 53.8545 204.819 49.9064 203.832 46.0199C203.339 43.7991 202.352 41.7634 201.488 39.4809Z" fill="white"/>
<path d="M324.186 26.8354C323.507 31.4621 322.829 36.0272 322.15 40.5305C322.088 40.8389 321.965 41.1474 321.903 41.3941C321.04 47.9949 320.361 54.6573 319.312 61.2581C318.449 66.6868 317.092 72.0537 315.981 77.4207C315.92 77.7292 315.734 77.9759 315.734 78.2844C314.871 84.515 314.007 90.7456 313.082 96.9146C312.835 98.3334 311.971 99.6289 311.725 101.048C311.293 103.454 309.504 103.083 307.962 103.022C305.556 102.96 304.877 101.726 305.988 99.6289C306.234 99.0737 306.789 98.6419 306.913 98.0867C307.715 93.0898 308.517 88.093 309.257 83.0961C310.059 77.7909 310.799 72.4239 311.663 67.1186C312.218 63.8491 312.773 60.6412 313.514 57.4334C314.562 52.8684 315.796 48.3033 316.968 43.7383C317.092 43.2448 317.277 42.7513 317.338 42.2578C318.14 37.7545 318.881 33.2511 319.683 28.7478C319.868 26.9588 320.423 26.7121 324.186 26.8354Z" fill="white"/>
<path d="M435.166 233.247C434.549 228.805 435.783 227.448 439.67 226.831C442.261 226.399 444.79 225.412 447.319 224.487C450.404 223.377 453.365 222.081 456.449 221.033C458.608 220.292 460.829 219.675 463.05 219.058C466.258 218.133 469.527 217.455 472.735 216.406C475.573 215.48 478.287 214 481.187 213.075C484.579 211.964 488.157 211.224 491.612 210.237C495.375 209.188 499.138 208.016 502.901 206.906C506.294 205.919 509.687 204.993 513.142 204.253C513.82 204.13 514.746 204.932 515.548 205.302C514.931 206.227 514.437 207.831 513.635 208.016C508.638 209.126 503.95 210.792 499.693 213.691C499.262 213.938 498.706 214 498.213 214.123C492.414 215.666 486.615 217.023 480.878 218.75C474.586 220.662 468.479 223.007 462.186 225.042C457.806 226.461 453.303 227.572 448.861 228.99C446.024 229.916 443.371 231.52 440.472 232.445C438.806 233.124 436.894 233 435.166 233.247Z" fill="white"/>
<path d="M133.692 227.634C130.176 226.4 126.968 225.352 123.76 224.18C120.676 223.069 117.529 221.897 114.445 220.725C112.533 219.985 110.558 219.306 108.646 218.566C103.896 216.715 99.2076 214.741 94.3958 212.952C91.6815 211.965 88.9055 211.286 86.1912 210.299C83.6002 209.374 81.1943 208.14 78.6034 207.153C75.9507 206.105 73.1747 205.179 70.5221 204.192C68.6714 203.514 66.8824 202.897 65.0934 202.095C60.9602 200.306 56.8887 198.393 52.8172 196.543C51.8919 196.111 50.8432 195.988 49.6094 195.679C49.7944 194.569 49.9178 193.52 50.1029 191.916C53.064 193.15 55.6549 194.384 58.3693 195.432C60.5284 196.296 62.7492 197.036 65.0317 197.715C67.9311 198.578 70.8922 199.134 73.7299 200.121C76.7527 201.169 79.6521 202.588 82.6749 203.76C84.5256 204.501 86.3762 205.118 88.2886 205.734C91.3114 206.721 94.3959 207.462 97.3569 208.572C101.675 210.176 105.87 211.965 110.188 213.569C112.964 214.618 115.74 215.605 118.516 216.53C120.799 217.332 123.081 218.011 125.364 218.936C127.708 219.861 129.929 221.157 132.273 222.082C134.556 223.007 134.309 224.673 133.692 227.634Z" fill="white"/>
<path d="M129.066 241.266C125.549 240.218 121.416 239.046 117.283 237.812C116.913 237.688 116.481 237.565 116.111 237.503C111.731 236.578 107.289 235.899 102.971 234.789C100.01 233.987 97.1105 232.692 94.2111 231.643C93.7176 231.458 93.2241 231.334 92.7306 231.273C87.5487 230.964 82.7986 229.114 77.9868 227.201C75.7043 226.276 73.2368 225.906 70.8309 225.289C67.623 224.425 64.4152 223.562 61.2073 222.575C60.0352 222.204 58.9248 221.464 57.9995 220.601C57.8144 220.415 58.8015 218.441 59.1099 218.441C62.2561 218.75 65.3405 219.305 68.425 219.799C68.7951 219.86 69.1653 220.23 69.5354 220.292C73.7303 221.156 77.9868 221.773 82.1817 222.821C86.0065 223.808 89.6461 225.227 93.4092 226.461C93.7176 226.584 93.9644 226.646 94.2728 226.708C100.38 228.065 106.611 229.175 112.656 230.779C119.195 232.507 125.611 234.666 131.965 236.825C132.767 237.072 133.199 238.429 133.816 239.231C132.829 239.909 131.842 240.588 130.793 241.205C130.608 241.39 130.114 241.266 129.066 241.266Z" fill="white"/>
<path d="M384.273 519.917C383.471 518.56 382.608 517.265 381.929 515.846C380.202 512.206 378.474 508.505 376.809 504.804C374.711 500.177 372.799 495.427 370.702 490.8C368.296 485.618 365.643 480.498 363.176 475.316C362.25 473.404 361.633 471.306 360.831 469.332C359.474 466.063 357.932 462.793 356.698 459.462C355.773 456.994 355.156 454.342 354.354 451.812C354.107 451.072 353.49 450.455 353.367 449.777C353.058 448.296 352.75 446.754 352.75 445.212C352.75 444.842 354.169 444.04 354.539 444.225C355.958 444.965 357.809 445.767 358.364 447.001C360.091 450.887 361.201 455.144 362.805 459.092C363.607 461.128 365.15 462.916 366.075 464.952C367.062 466.988 367.741 469.147 368.542 471.245C369.283 473.095 369.9 474.946 370.702 476.797C372.676 481.608 374.835 486.42 376.685 491.294C377.672 493.823 378.289 496.537 379.153 499.128C379.647 500.609 380.449 501.904 381.004 503.385C382.361 506.963 383.841 510.541 384.952 514.242C385.445 515.908 385.014 517.882 385.014 519.732C384.89 519.794 384.582 519.856 384.273 519.917Z" fill="white"/>
<path d="M135.418 516.094C136.282 514.058 136.775 512.701 137.454 511.467C139.058 508.198 140.6 504.928 142.389 501.782C143.993 499.006 145.967 496.415 147.632 493.639C149.483 490.616 151.087 487.47 152.938 484.447C155.035 481.054 157.256 477.723 159.415 474.33C161.204 471.554 163.055 468.84 164.782 466.126C167.496 461.931 170.272 457.674 172.925 453.479C174.406 451.135 175.639 448.544 177.305 446.323C179.588 443.115 181.191 443.362 183.104 446.693C181.191 449.716 179.341 452.677 177.49 455.577C176.75 456.749 175.886 457.859 175.208 459.031C171.753 464.768 168.422 470.567 164.905 476.304C161.513 481.795 158.12 487.347 154.48 492.714C152.259 495.922 149.421 498.698 147.201 501.905C145.288 504.62 144.116 507.889 142.204 510.604C140.662 512.578 139.675 515.415 135.418 516.094Z" fill="white"/>
<path d="M361.635 519.548C360.586 519.98 359.476 520.042 358.797 518.129C358.242 516.525 357.255 515.106 356.7 513.502C355.774 510.85 355.158 508.074 354.232 505.359C353.739 503.879 352.998 502.46 352.443 500.979C351.209 497.71 349.914 494.502 348.742 491.233C348.557 490.739 348.557 490.246 348.372 489.752C347.261 486.482 346.089 483.275 344.917 480.005C344.732 479.45 344.485 478.833 344.3 478.278C343.005 474.145 341.648 470.011 340.414 465.878C339.488 462.67 338.872 459.339 337.885 456.07C336.836 452.615 335.54 449.16 334.368 445.767C333.566 443.423 332.703 441.079 331.962 438.673C331.901 438.365 332.394 437.563 332.641 437.563C333.69 437.563 335.17 437.439 335.725 438.056C337.144 439.66 338.378 441.449 339.118 443.423C340.352 446.569 341.092 449.962 342.141 453.17C343.19 456.316 344.424 459.401 345.472 462.485C346.459 465.508 347.323 468.593 348.248 471.615C349.42 475.317 350.593 479.018 351.826 482.658C352.443 484.57 353.307 486.359 353.862 488.271C354.787 491.603 355.528 495.057 356.391 498.389C357.625 503.015 359.044 507.519 360.216 512.145C360.956 514.551 361.203 516.895 361.635 519.548Z" fill="white"/>
<path d="M153.556 520.164C152.322 517.758 152.322 515.969 153.741 513.995C154.913 512.391 155.715 510.602 156.517 508.813C158.059 505.359 159.293 501.781 161.02 498.45C162.439 495.735 164.536 493.329 166.14 490.738C167.868 487.839 169.472 484.816 171.076 481.855C172.865 478.524 174.592 475.193 176.319 471.923C178.108 468.592 179.774 465.137 181.624 461.868C183.907 457.735 186.313 453.725 188.657 449.653C188.842 449.283 189.212 449.036 189.336 448.666C189.891 447.371 190.199 445.767 192.112 446.199C192.667 446.322 193.592 446.877 193.592 447.309C193.592 448.851 193.654 450.579 193.099 451.936C192.235 454.033 190.878 455.884 189.706 457.796C187.917 460.819 186.066 463.78 184.277 466.865C183.29 468.53 182.488 470.319 181.501 471.985C178.91 476.488 176.257 480.992 173.666 485.557C172.803 487.099 172.248 488.888 171.384 490.492C169.533 493.823 167.436 496.969 165.585 500.3C163.179 504.557 161.02 508.937 158.553 513.132C157.257 515.353 155.468 517.45 153.556 520.164Z" fill="white"/>
<path d="M439.545 390.123C440.778 390.617 441.951 390.863 442.814 391.419C447.379 394.441 452.006 397.464 456.448 400.61C458.422 402.029 459.964 403.941 461.876 405.36C465.454 407.951 469.217 410.234 472.734 412.825C475.941 415.169 479.026 417.76 482.172 420.166C485.133 422.448 488.094 424.669 490.994 427.013C493.214 428.864 495.312 430.776 497.348 432.812C497.903 433.367 498.026 434.416 498.335 435.218C497.039 435.033 495.25 435.218 494.633 434.478C493.214 432.75 491.857 431.702 489.575 430.961C486.799 430.098 484.393 428.062 481.925 426.396C476.065 422.448 470.204 418.377 464.467 414.305C460.519 411.529 456.756 408.568 452.87 405.73C449.415 403.201 446.022 400.61 442.444 398.266C439.236 396.169 438.681 395.243 439.545 390.123Z" fill="white"/>
<path d="M196.491 521.029C195.813 519.117 195.504 517.513 197.047 515.477C198.404 513.75 198.959 511.344 199.638 509.185C200.625 506.038 201.18 502.769 202.229 499.623C203.216 496.6 204.511 493.701 205.683 490.739C206.423 488.765 207.225 486.791 207.904 484.817C208.768 482.165 209.384 479.512 210.372 476.921C211.359 474.145 212.592 471.431 213.764 468.655C214.566 466.742 215.492 464.892 216.109 462.979C217.034 460.142 217.774 457.304 218.638 454.466C219.502 451.69 220.55 448.914 221.661 445.645C222.833 445.768 224.56 445.953 227.151 446.2C226.472 447.804 225.917 448.976 225.485 450.148C224.56 452.554 223.696 455.021 222.833 457.489C221.599 460.758 220.242 463.966 219.07 467.297C218.021 470.259 217.342 473.405 216.294 476.366C215.492 478.71 214.32 480.993 213.333 483.275C213.024 483.892 212.777 484.57 212.531 485.249C210.557 490.246 208.521 495.181 206.67 500.178C205.683 502.769 204.943 505.483 204.018 508.136C203.216 510.295 202.229 512.454 201.241 514.552C200.933 515.23 200.625 515.847 200.316 516.464C199.452 518.191 198.589 519.919 197.787 521.584C197.232 521.337 196.862 521.214 196.491 521.029Z" fill="white"/>
<path d="M386.865 444.287C388.962 447.31 391.06 450.456 393.404 453.479C396.242 457.118 397.599 461.745 401.177 464.891C402.411 466.002 402.904 467.914 403.768 469.395C406.174 473.281 408.703 477.168 411.109 481.054C412.898 483.953 414.625 486.914 416.291 489.876C417.956 492.775 419.437 495.798 421.102 498.697C422.089 500.486 423.262 502.152 424.187 503.941C424.372 504.311 423.878 505.421 423.755 505.421C422.645 505.36 421.041 505.545 420.485 504.866C418.326 502.398 416.352 499.684 414.502 496.908C412.774 494.441 411.294 491.788 409.69 489.259C407.716 486.112 405.68 483.09 403.768 479.882C402.102 477.044 401.362 473.096 398.956 471.307C396.057 469.148 395.131 466.125 393.342 463.534C391.121 460.265 389.394 456.625 387.358 453.232C386.68 452.06 386.001 450.826 385.137 449.839C382.3 446.693 382.361 446.323 386.865 444.287Z" fill="white"/>
<path d="M437.57 256.936C438.557 253.913 440.84 253.728 443.369 253.481C448.798 252.926 454.412 252.803 459.532 251.199C465.145 249.41 471.314 251.076 476.188 249.102C481.37 247.004 486.675 248.485 491.672 246.202C494.51 244.907 498.334 245.709 501.666 245.339C504.257 245.03 506.786 244.537 509.315 243.858C511.598 243.241 512.708 244.105 512.646 247.004C507.896 247.929 503.023 248.793 498.211 249.78C493.152 250.829 488.156 252.063 483.159 253.111C482.048 253.358 480.938 253.235 479.828 253.42C476.743 253.913 473.659 254.592 470.574 255.024C467.86 255.394 464.96 255.147 462.369 255.887C456.447 257.553 450.402 257.861 444.356 257.861C444.171 257.861 443.863 257.861 443.739 257.923C441.148 260.699 439.298 259.219 437.57 256.936Z" fill="white"/>
<path d="M121.66 304.931C116.478 305.794 111.358 306.72 106.176 307.398C99.6372 308.324 92.8514 308.262 86.5591 310.051C82.1791 311.285 77.9226 310.976 73.666 311.593C67.7438 312.395 61.76 313.135 55.7761 313.752C54.4189 313.876 52.9384 313.32 51.5195 313.074C51.5195 312.642 51.5812 312.148 51.5812 311.716C54.7274 310.976 57.8735 310.236 61.0197 309.496C67.0036 308.138 72.9874 306.905 78.9713 305.547C79.0947 305.547 79.1564 305.486 79.2797 305.486C84.0298 304.807 88.7799 304.067 93.5917 303.388C96.6145 302.957 99.884 303.82 102.598 301.599C103.277 301.044 104.572 301.229 105.559 301.168C108.767 300.982 111.852 301.229 115.06 299.625C119.378 297.466 121.969 299.872 121.66 304.931Z" fill="white"/>
<path d="M214.689 448.668C205.004 470.444 195.38 492.159 185.757 513.873C184.091 513.75 183.104 513.626 181.5 513.503C182.734 510.542 183.968 507.889 184.955 505.175C185.88 502.769 186.497 500.302 187.422 497.896C188.471 495.243 189.89 492.714 191 490.123C191.925 487.964 192.604 485.681 193.591 483.584C196.244 477.662 199.143 471.739 201.734 465.755C203.4 461.869 204.695 457.798 206.361 453.849C207.163 451.875 208.026 449.716 209.507 448.297C210.309 447.495 212.345 447.927 213.825 447.742C214.134 448.112 214.442 448.359 214.689 448.668Z" fill="white"/>
<path d="M428.814 43.7992C426.902 46.9454 424.99 50.0298 423.139 53.2377C422.152 54.9033 421.288 56.5689 420.363 58.2962C420.116 58.728 420.301 59.3449 420.054 59.7767C417.71 63.3547 415.243 66.8093 412.898 70.3873C411.294 72.8549 409.814 75.3841 408.272 77.8517C405.064 82.9719 401.733 88.0922 398.586 93.2741C397.414 95.1864 396.859 97.5306 395.625 99.443C394.7 100.862 393.158 101.911 391.862 103.083C390.999 103.823 389.642 104.378 389.395 105.242C388.716 107.648 387.297 107.216 384.953 106.722C386.865 103.946 388.593 101.479 390.32 99.0112C390.814 98.3326 391.492 97.5306 391.431 96.7904C391.369 94.0143 393.158 92.4104 394.762 90.498C396.057 89.0175 396.736 87.0434 397.661 85.3161C398.34 83.959 398.895 82.5401 399.697 81.3063C401.609 78.3452 403.707 75.4458 405.681 72.5464C408.272 68.7834 410.863 65.0203 413.33 61.1956C415.736 57.4942 418.08 53.7929 420.548 50.1532C421.905 48.1791 423.324 46.2668 424.928 44.5395C425.606 43.7992 426.84 43.4908 427.827 42.9355C428.136 43.1823 428.506 43.4908 428.814 43.7992Z" fill="white"/>
<path d="M411.725 38.6797C412.65 42.5044 410.245 44.7869 409.072 47.3162C407.592 50.524 405.494 53.4234 403.891 56.5696C402.163 59.9625 400.806 63.6022 399.079 66.9951C397.537 70.0179 395.562 72.7939 393.897 75.755C392.108 78.9628 390.442 82.2324 388.653 85.4402C386.247 89.6968 383.78 93.8917 381.312 98.0865C380.449 99.5671 379.4 100.986 378.166 102.898C377.611 102.96 376.439 103.083 374.156 103.33C375.082 101.418 375.637 100.184 376.254 99.0119C377.117 97.408 378.104 95.8657 378.906 94.2618C380.325 91.3007 381.621 88.2779 383.101 85.3168C384.643 82.2941 386.309 79.333 387.913 76.3719C389.147 74.0277 390.381 71.6218 391.676 69.2159C392.293 68.0438 393.033 66.9334 393.773 65.823C396.364 61.5664 398.955 57.3099 401.485 52.9916C403.089 50.2156 404.507 47.3779 406.05 44.5402C406.852 43.0596 407.469 41.3323 408.517 40.0985C409.072 39.2966 410.43 39.1732 411.725 38.6797Z" fill="white"/>
<path d="M338.871 108.142C340.537 103.639 342.264 99.1354 343.806 94.5704C344.67 92.0411 345.287 89.3885 346.212 86.8592C347.323 83.8364 348.741 80.937 349.914 77.976C350.715 76.0636 351.456 74.0895 352.134 72.1155C353.677 67.6121 354.91 63.0471 356.638 58.6055C358.242 54.534 360.401 50.5859 362.128 46.5761C363.115 44.2936 363.732 41.826 364.904 39.7286C365.274 39.1117 367.001 39.235 368.112 38.9883C367.927 39.7902 367.865 40.6539 367.557 41.3942C366.94 42.9364 366.199 44.4169 365.644 45.9592C364.596 48.8586 363.67 51.8197 362.621 54.7808C361.511 58.0503 360.216 61.2581 359.29 64.5277C358.057 68.6609 357.193 72.8557 356.021 77.0506C355.712 78.161 355.157 79.1481 354.664 80.1351C353.183 83.0345 351.702 85.9956 350.222 88.895C349.173 90.9924 348.186 93.0899 347.137 95.1873C347.014 95.434 346.706 95.7425 346.706 95.9276C347.631 100.616 345.287 104.194 342.758 107.71C342.511 108.019 342.511 108.451 342.264 108.821C341.77 109.623 341.215 110.425 340.66 111.227C340.29 110.363 339.735 109.499 338.871 108.142Z" fill="white"/>
<path d="M123.512 315.973C124.067 319.921 122.71 321.216 119.132 321.895C114.135 322.82 109.262 324.239 104.388 325.411C104.08 325.473 103.771 325.596 103.463 325.658C98.713 326.583 93.9012 327.324 89.2128 328.372C85.4498 329.236 81.7484 330.532 78.047 331.58C77.9237 331.58 77.862 331.642 77.7386 331.642C73.6671 332.506 69.5339 333.369 65.4624 334.109C64.4754 334.295 63.4267 334.109 62.4396 334.109C61.6994 331.21 63.1182 330.717 65.4007 329.853C69.9657 328.126 75.3327 328.743 79.0958 324.856C79.3425 324.609 79.836 324.486 80.2062 324.363C85.1413 323.437 90.1382 322.759 95.0116 321.648C98.7747 320.785 102.476 319.366 106.239 318.502C111.298 317.33 116.48 316.466 121.6 315.541C122.093 315.541 122.772 315.849 123.512 315.973Z" fill="white"/>
<path d="M436.587 239.047C439.178 238.43 441.769 237.936 444.359 237.258C448.431 236.086 452.441 234.852 456.451 233.618C456.759 233.556 457.006 233.433 457.314 233.371C461.941 232.508 466.629 231.829 471.194 230.78C475.636 229.793 480.078 228.436 484.519 227.264C485.321 227.079 486.123 227.079 486.987 226.956C489.886 226.524 492.847 227.141 495.747 225.352C497.351 224.365 500.127 225.167 502.656 225.167C500.99 228.56 498.523 228.745 495.747 229.053C492.662 229.423 489.701 230.78 486.678 231.767C485.568 232.138 484.519 232.693 483.409 233.001C478.905 234.235 474.34 235.469 469.837 236.641C466.197 237.566 462.496 238.368 458.856 239.294C454.723 240.342 450.652 241.638 446.519 242.563C444.236 243.057 441.83 243.55 439.609 243.303C438.437 243.18 437.45 241.453 436.34 240.466C436.34 240.034 436.463 239.54 436.587 239.047Z" fill="white"/>
<path d="M171.198 442.559C167.682 446.816 163.796 450.332 161.452 454.712C159.477 458.475 156.825 461.621 154.542 465.014C151.828 469.147 148.62 472.972 145.597 476.92C142.39 481.115 139.243 485.31 135.912 489.381C135.234 490.245 134 490.739 133.013 491.232C132.766 491.355 131.902 490.739 131.902 490.492C132.026 489.32 132.149 488.086 132.704 487.099C134.37 484.261 136.159 481.547 138.01 478.833C140.415 475.255 142.945 471.8 145.412 468.284C147.818 464.829 150.101 461.374 152.568 457.982C155.036 454.527 157.565 451.134 160.094 447.741C161.637 445.644 163.364 443.67 164.721 441.449C166.51 438.611 167.991 439.29 169.656 441.449C169.841 441.819 170.273 442.004 171.198 442.559Z" fill="white"/>
<path d="M139.43 149.719C138.813 151.2 138.196 152.618 137.332 154.531C133.446 151.015 129.806 147.683 126.105 144.414C122.218 140.959 118.147 137.628 114.445 134.05C109.14 128.93 104.02 123.563 98.838 118.319C97.3575 116.839 95.6918 115.605 94.3347 114.001C93.7178 113.261 93.6561 112.089 93.3477 111.102C94.5198 111.287 96.0003 111.04 96.7406 111.657C101.244 115.235 105.439 119.306 110.004 122.761C116.728 127.819 122.465 133.803 128.511 139.54C132.089 142.933 136.098 145.771 139.923 148.917C139.738 149.164 139.553 149.472 139.43 149.719Z" fill="white"/>
<path d="M380.078 43.0586C382.423 45.7112 381.374 48.3022 380.757 50.5847C380.14 52.8672 378.536 54.9029 377.672 57.1855C375.945 61.5654 374.465 66.007 372.861 70.4487C372.676 70.9422 372.306 71.5591 371.874 71.8675C369.9 73.3481 368.974 75.1371 368.789 77.728C368.604 79.8255 367.679 81.8612 366.815 83.8353C364.964 87.8451 363.114 91.9166 360.77 95.6796C359.597 97.592 359.289 99.6277 358.549 101.54C357.747 103.576 355.588 105.118 353.675 107.154C350.961 102.712 354.354 100.43 355.341 97.6537C355.588 96.9134 356.081 96.2965 356.39 95.5562C357.685 92.4718 358.919 89.3873 360.214 86.3028C361.078 84.2054 361.942 82.108 362.62 80.0105C363.546 77.1111 364.163 74.0883 365.088 71.1889C365.335 70.4487 366.507 70.0785 366.877 69.3383C369.036 64.6499 371.072 59.8998 373.231 55.2114C373.724 54.2244 374.465 53.299 375.02 52.3737C376.624 49.3509 378.289 46.3281 380.078 43.0586Z" fill="white"/>
<path d="M226.164 499.376C226.904 496.106 227.521 493.145 228.2 490.184C228.261 489.999 228.323 489.814 228.385 489.629C229.187 485.496 229.865 481.301 230.852 477.229C231.839 473.158 233.197 469.21 234.369 465.261C234.43 465.076 234.554 464.891 234.554 464.706C235.417 460.696 236.096 456.625 237.206 452.677C238.193 449.222 239.366 445.829 240.908 442.621C241.463 441.449 243.252 440.771 245.288 439.229C245.103 442.436 245.288 444.904 244.733 447.248C243.807 451.258 242.327 455.083 241.155 459.031C239.859 463.287 238.625 467.544 237.453 471.8C236.466 475.378 235.849 479.08 234.801 482.658C233.814 486.174 232.395 489.567 231.284 493.083C230.914 494.132 230.791 495.242 230.667 496.353C230.482 498.45 229.495 499.561 226.164 499.376Z" fill="white"/>
<path d="M222.152 53.9162C225.607 53.1759 226.409 54.163 226.841 56.6305C227.581 60.4553 229 64.2183 230.172 67.9814C230.974 70.449 231.899 72.8548 232.516 75.3841C233.441 79.0238 233.997 82.7868 234.922 86.4265C236.032 90.8681 237.513 95.1864 238.562 99.628C239.055 101.664 238.438 104.255 239.425 105.92C240.659 108.079 239.795 109.56 238.994 111.164C238.562 112.028 237.39 112.459 236.526 113.076C236.032 112.274 235.23 111.596 235.045 110.732C234.182 106.846 233.565 102.898 232.763 99.0111C231.467 93.1506 229.925 87.2902 228.63 81.4297C227.149 74.7055 225.792 67.9197 224.311 61.1339C223.756 58.7897 222.893 56.5072 222.152 53.9162Z" fill="white"/>
<path d="M398.276 113.077C396.302 109.685 399.201 107.834 400.373 105.798C403.334 100.801 406.912 96.1129 410.305 91.4245C411.416 89.8823 412.958 88.6485 414.13 87.1679C416.166 84.577 418.202 81.986 420.114 79.3334C422.458 76.0022 424.556 72.4242 427.085 69.278C428.319 67.7358 430.354 66.9338 432.082 65.7617C433.994 69.6481 430.971 71.4988 429.799 73.843C428.195 77.1126 426.098 80.1353 424.185 83.2815C423.507 84.3919 422.89 85.5023 422.15 86.4893C419.435 90.129 416.721 93.7687 414.007 97.3467C412.711 99.074 411.416 100.74 410.059 102.405C407.529 105.551 404.753 108.512 402.594 111.905C401.299 113.879 399.942 113.386 398.276 113.077Z" fill="white"/>
<path d="M424.742 176C427.703 173.717 430.541 171.373 433.564 169.152C438.992 165.143 444.359 161.009 449.973 157.246C454.662 154.038 459.782 151.447 464.532 148.301C468.48 145.71 472.243 142.934 475.944 139.973C478.474 137.938 478.597 137.691 482.854 138.986C480.263 140.96 478.103 142.688 475.883 144.353C473.909 145.895 471.935 147.376 469.899 148.857C466.321 151.447 462.743 154.038 459.227 156.629C457.191 158.172 455.34 160.084 453.119 161.318C449.911 163.045 447.691 166.191 443.928 167.363C441.46 168.165 439.548 170.695 437.327 172.36C434.366 174.643 431.466 177.049 428.32 179.023C427.765 179.393 426.099 177.912 424.927 177.295C424.804 176.863 424.742 176.432 424.742 176Z" fill="white"/>
<path d="M175.579 127.019C172.001 128.315 170.705 126.217 169.595 124.675C164.66 117.951 159.786 111.227 155.098 104.317C151.89 99.629 149.114 94.6322 146.03 89.8821C144.919 88.0931 143.562 86.4892 142.328 84.8236C140.539 82.4177 138.565 80.1352 136.9 77.6676C136.344 76.8657 136.344 75.6319 136.098 74.4598C138.318 73.8429 139.367 74.3364 140.478 76.2488C142.205 79.2098 144.672 81.8008 146.77 84.5768C149.423 88.0314 152.014 91.5477 154.604 95.064C157.627 99.1972 160.588 103.33 163.488 107.464C165.4 110.178 167.312 113.016 169.163 115.792C170.767 118.198 172.494 120.542 173.975 123.009C174.715 124.12 175.024 125.6 175.579 127.019Z" fill="white"/>
<path d="M423.202 164.773C422.893 164.341 422.647 164.033 422.461 163.786C419.994 160.763 420.302 159.159 423.387 156.877C427.212 154.039 430.913 151.078 434.738 148.117C437.267 146.204 439.796 144.292 442.325 142.38C442.819 142.009 443.251 141.639 443.683 141.269C447.261 138.37 450.715 135.285 454.417 132.571C456.082 131.337 458.18 130.72 460.154 129.918C460.585 129.733 461.449 130.103 461.696 130.474C461.881 130.782 461.634 131.646 461.264 132.016C456.761 136.211 452.257 140.467 447.631 144.6C441.894 149.721 436.033 154.717 430.173 159.653C428.013 161.38 425.731 162.922 423.202 164.773Z" fill="white"/>
<path d="M249.606 98.7021C248.804 93.5818 248.002 88.3999 247.2 83.218C246.028 75.7536 244.671 68.3509 243.807 60.8248C243.191 55.4578 243.252 49.9675 243.129 44.5388C243.129 44.107 243.931 43.6135 244.363 43.1816C244.671 43.6135 245.226 43.9836 245.288 44.4771C246.09 48.1785 246.707 51.9415 247.571 55.6429C248.743 60.6397 250.038 65.5749 251.272 70.51C251.334 70.6951 251.334 70.9419 251.334 71.1269C252.259 78.8998 253.184 86.6109 254.048 94.3838C254.356 97.6533 253.184 98.7637 249.606 98.7021Z" fill="white"/>
<path d="M128.51 92.1016C130.484 93.8289 132.273 95.1243 133.815 96.7283C138.565 101.725 143.809 106.475 147.819 112.027C151.767 117.518 156.332 122.514 160.403 127.881C160.588 128.128 160.773 128.622 160.712 128.683C159.663 129.67 158.676 130.781 157.442 131.459C156.825 131.768 155.468 131.583 154.975 131.151C152.754 128.683 150.656 126.031 148.559 123.44C146.893 121.342 144.919 119.368 143.685 117.024C141.588 113.014 137.393 110.608 135.789 106.167C134.987 104.008 132.335 102.527 131.101 100.43C129.805 98.1471 126.968 96.2347 128.51 92.1016Z" fill="white"/>
<path d="M411.046 134.298C408.27 128.993 411.786 126.526 414.253 123.811C418.202 119.37 422.211 114.928 426.283 110.61C431.156 105.428 436.03 100.308 441.088 95.3724C441.829 94.6322 443.618 95.0023 444.913 94.8789C445.036 95.1874 445.098 95.4341 445.222 95.7426C444.605 96.4211 443.926 97.038 443.371 97.7166C438.312 104.071 433.439 110.486 428.257 116.717C424.926 120.727 421.163 124.366 417.646 128.191C416.474 129.487 415.487 130.967 414.253 132.201C413.328 133.065 412.094 133.62 411.046 134.298Z" fill="white"/>
<path d="M82.9226 420.537C81.6271 417.082 84.7733 416.465 86.3772 415.231C90.6337 411.9 95.0754 408.816 99.4553 405.608C102.848 403.14 106.241 400.673 109.634 398.267C113.706 395.306 117.777 392.283 121.91 389.384C122.897 388.705 124.131 388.397 125.241 388.088C125.365 388.026 126.167 389.26 126.043 389.754C125.735 391.173 125.488 393.023 124.501 393.764C120.8 396.725 116.79 399.316 112.842 401.968C109.387 404.312 105.748 406.41 102.293 408.754C98.9618 411.037 95.8156 413.566 92.4844 415.848C89.7701 417.637 86.8707 419.18 84.0947 420.784C83.7862 420.845 83.2927 420.598 82.9226 420.537Z" fill="white"/>
<path d="M322.027 103.33C323.446 96.9759 324.31 91.6706 325.852 86.5504C327.394 81.4919 329.368 76.6801 330.109 71.3748C330.602 67.7351 332.515 64.2805 334.118 60.8259C334.489 60.0856 336.154 59.9006 337.265 59.4688C337.511 59.7155 337.82 59.9623 338.067 60.209C337.635 61.6279 337.203 63.1084 336.709 64.5273C336.524 65.2059 336.216 65.8844 336.093 66.563C335.229 70.7579 335.106 75.2612 333.378 79.0243C331.898 82.2938 332.206 85.44 331.404 88.6478C330.355 93.2128 329.122 97.7161 327.333 102.034C327.024 102.96 324.063 102.836 322.027 103.33Z" fill="white"/>
<path d="M149.608 428.494C152.445 433.059 149.669 435.28 147.757 437.377C143.624 441.819 139.059 445.952 134.864 450.332C130.916 454.465 127.276 458.907 123.328 463.102C122.588 463.904 121.169 464.089 120.12 464.521C118.393 461.375 120.799 460.202 121.971 458.784C126.351 453.478 131.039 448.358 135.481 443.053C138.442 439.537 141.094 435.712 144.179 432.257C145.598 430.777 147.695 429.79 149.608 428.494Z" fill="white"/>
<path d="M435.475 466.803C431.65 462.793 428.072 459.153 424.556 455.39C422.15 452.861 419.806 450.208 417.523 447.556C414.501 443.978 411.416 440.4 408.702 436.637C406.974 434.231 409.751 433.552 411.108 432.318C413.699 433.676 416.043 435.218 416.968 438.302C417.955 441.633 421.348 442.867 423.322 445.335C425.235 447.802 426.9 450.332 428.813 452.799C430.416 454.835 432.576 456.562 433.686 458.845C434.673 461.004 437.943 462.793 435.475 466.803Z" fill="white"/>
<path d="M100.566 428.989C101.677 427.446 102.232 426.213 103.219 425.349C107.229 421.586 111.362 417.946 115.495 414.306C119.135 411.099 122.713 407.829 126.661 404.93C127.833 404.066 129.931 404.375 131.473 404.189C133.015 407.582 130.979 409.125 129.19 410.605C124.378 414.553 119.567 418.501 114.632 422.264C111.547 424.609 108.339 426.829 105.008 428.865C104.021 429.42 102.54 428.989 100.566 428.989Z" fill="white"/>
<path d="M433.622 410.48C435.103 411.467 436.46 412.146 437.509 413.133C443.431 418.685 449.291 424.299 455.152 429.913C456.324 431.023 457.558 432.133 458.422 433.429C458.977 434.231 458.853 435.465 459.038 436.513C457.99 436.575 456.694 437.069 455.954 436.637C454.473 435.711 453.24 434.354 451.882 433.182C445.96 428 440.1 422.757 434.116 417.575C433.499 417.081 432.45 417.02 432.018 416.403C431.402 415.539 430.661 414.243 430.908 413.503C431.402 412.331 432.697 411.529 433.622 410.48Z" fill="white"/>
<path d="M424.988 484.879C422.027 480.252 419.251 475.502 416.043 471.06C414.069 468.346 411.354 466.187 409.072 463.658C408.455 462.979 408.085 461.869 408.023 460.943C407.838 458.229 407.159 456.07 404.507 455.885C403.396 453.911 402.471 452.307 401.546 450.641C400.867 449.407 400.25 448.05 399.448 446.94C398.955 446.323 397.844 446.2 397.351 445.521C396.672 444.596 396.24 443.485 395.809 442.375C395.809 442.313 396.981 441.573 397.042 441.635C399.263 443.979 403.643 444.102 404.013 448.42C404.075 449.099 405.247 449.592 405.679 450.333C408.517 454.651 411.169 459.093 414.069 463.349C416.351 466.619 419.004 469.641 421.348 472.911C423.075 475.255 424.741 477.599 425.975 480.19C426.53 481.362 426.098 483.028 426.098 484.447C425.851 484.632 425.42 484.755 424.988 484.879Z" fill="white"/>
<path d="M438.438 123.934C439.24 124.797 439.918 125.661 440.905 126.771C437.142 130.473 433.379 134.112 429.616 137.875C425.73 141.824 422.09 145.957 418.018 149.72C416.908 150.707 414.687 150.398 412.59 150.768C413.083 145.833 416.661 144.414 418.944 142.132C422.83 138.184 426.593 133.927 431.158 130.966C434.181 128.992 435.353 125.969 438.438 123.934Z" fill="white"/>
<path d="M124.501 114.865C126.105 116.037 128.017 116.963 129.374 118.382C133.261 122.453 136.901 126.771 140.725 130.904C142.083 132.385 143.871 133.619 145.105 135.223C145.969 136.395 146.339 137.937 146.894 139.356C143.255 140.898 142.021 138.492 140.664 137.135C135.173 131.398 129.93 125.476 124.748 119.492C123.946 118.567 123.822 117.148 123.391 115.914C123.761 115.544 124.131 115.174 124.501 114.865Z" fill="white"/>
<path d="M444.175 448.235C442.941 447.31 441.646 446.446 440.597 445.398C435.662 440.586 430.727 435.774 425.853 430.901C424.743 429.79 423.571 428.556 422.707 427.199C422.399 426.706 422.769 425.719 422.831 424.979C423.509 425.102 424.373 424.979 424.805 425.349C428.383 428.31 432.269 430.839 435.045 434.787C437.389 438.118 440.844 440.709 443.682 443.732C444.484 444.596 444.915 445.891 445.532 447.002C445.039 447.433 444.607 447.804 444.175 448.235Z" fill="white"/>
<path d="M139.059 416.588C140.972 420.598 140.478 421.338 137.517 423.312C134.741 425.163 132.459 427.815 129.868 429.974C128.202 431.393 126.413 432.565 124.254 433.367C124.932 429.111 128.449 427.384 131.04 424.793C133.631 422.263 136.16 419.549 139.059 416.588Z" fill="white"/>
<path d="M470.762 448.297C469.097 447.248 466.753 446.569 465.951 445.089C464.532 442.436 462.434 441.758 459.227 441.449C459.597 440.154 459.967 438.982 460.275 437.871C461.447 438.241 462.866 438.241 463.73 438.981C466.321 441.079 468.727 443.361 471.133 445.706C471.503 446.076 471.441 446.816 471.626 447.371C471.379 447.618 471.071 447.926 470.762 448.297Z" fill="white"/>
<path d="M351.826 196.295C353.121 206.103 333.751 227.324 325.793 223.993C329.556 219.86 333.134 215.973 336.774 212.025C340.598 207.892 344.608 203.882 348.063 199.441C349.05 198.084 348.803 195.678 351.826 196.295Z" fill="white"/>
<path d="M390.627 226.832C396.735 239.725 394.02 250.151 383.718 259.959C383.718 257.8 383.41 256.196 383.78 254.777C384.829 250.953 386.494 247.251 387.42 243.365C388.468 238.738 388.9 233.988 389.64 229.3C389.764 228.621 390.134 228.066 390.627 226.832Z" fill="white"/>
<path d="M185.389 319.428C183.291 319.428 181.009 319.86 179.035 319.305C176.999 318.75 174.778 317.639 173.359 316.097C170.028 312.457 170.522 308.448 172.743 304.191C175.95 297.899 184.525 294.876 191.558 298.331C190.262 298.639 189.46 298.886 188.658 299.071C185.882 299.749 182.983 300.243 180.33 301.23C179.22 301.662 177.924 303.081 177.801 304.129C177.493 307.584 177.123 311.162 177.924 314.431C178.233 315.789 181.441 316.529 183.291 317.454C183.97 317.824 184.772 317.948 185.512 318.256C185.451 318.688 185.451 319.058 185.389 319.428Z" fill="white"/>
</svg>
